<svg xmlns="http://www.w3.org/2000/svg" viewBox="0 0 499.99951 471.0117"><defs><style>.cls-1{fill:#7b261e;}.cls-1,.cls-10,.cls-11,.cls-12,.cls-13,.cls-14,.cls-15,.cls-16,.cls-17,.cls-18,.cls-19,.cls-2,.cls-20,.cls-21,.cls-22,.cls-23,.cls-24,.cls-25,.cls-26,.cls-27,.cls-28,.cls-29,.cls-3,.cls-30,.cls-31,.cls-32,.cls-35,.cls-37,.cls-38,.cls-39,.cls-4,.cls-40,.cls-41,.cls-42,.cls-43,.cls-44,.cls-45,.cls-46,.cls-47,.cls-48,.cls-49,.cls-5,.cls-50,.cls-51,.cls-52,.cls-53,.cls-54,.cls-55,.cls-56,.cls-57,.cls-58,.cls-59,.cls-60,.cls-61,.cls-62,.cls-63,.cls-64,.cls-65,.cls-66,.cls-67,.cls-68,.cls-69,.cls-7,.cls-70,.cls-71,.cls-72,.cls-74,.cls-75,.cls-8,.cls-9{fill-rule:evenodd;}.cls-2{fill:#a51919;}.cls-3{fill:#b52a22;}.cls-4{fill:#812e23;}.cls-5,.cls-6{fill:#f2d173;}.cls-7{fill:#e5ba50;}.cls-8{fill:#a74e3c;}.cls-9{fill:#d29a22;}.cls-10{fill:#f6dfa4;}.cls-11{fill:#d1a45b;}.cls-12{fill:#be8f4c;}.cls-13{fill:#93682a;}.cls-14{fill:#e0c392;}.cls-15{fill:#cbe0ee;}.cls-16{fill:#fff;}.cls-17{fill:#eab913;}.cls-18{fill:#f0cc61;}.cls-19{fill:#cf9122;}.cls-20{fill:#ecf5f9;}.cls-21{fill:#f4d98e;}.cls-22{fill:#e09f17;}.cls-23{fill:#e5eff9;}.cls-24{fill:#bd7b27;}.cls-25{fill:#d7d2d6;}.cls-26{fill:#dab475;}.cls-27{fill:#cc8722;}.cls-28{fill:#f7e3ad;}.cls-29{fill:#e0ebf5;}.cls-30{fill:#f7f2e0;}.cls-31,.cls-33{fill:#8cc4d9;}.cls-32{fill:#75a1c8;}.cls-34{fill:#a9d2e2;}.cls-35{fill:#e3e0d3;}.cls-36,.cls-71{fill:#7eadce;}.cls-37{fill:#ddcaa7;}.cls-38{fill:#d0b991;}.cls-39{fill:#bfa174;}.cls-40{fill:#b28d58;}.cls-41{fill:#b3905a;}.cls-42{fill:#ebebeb;}.cls-43{fill:#ece1cb;}.cls-44{fill:#b24935;}.cls-45{fill:#953225;}.cls-46,.cls-77{fill:#f1d7c8;}.cls-47{fill:#3d3d3c;}.cls-48{fill:#575756;}.cls-49{fill:#20201e;}.cls-50{fill:#2f2e2c;}.cls-51{fill:#536a25;}.cls-52{fill:#6d842e;}.cls-53{fill:#45591f;}.cls-54{fill:#3f511b;}.cls-55{fill:#71854e;}.cls-56{fill:#495d20;}.cls-57{fill:#506523;}.cls-58{fill:#7a1b16;}.cls-59{fill:#bf0717;}.cls-60{fill:#6e6e6d;}.cls-61{fill:#c4c4c4;}.cls-62{fill:#afb0b0;}.cls-63{fill:#999a9a;}.cls-64{fill:#d8d8d8;}.cls-65{fill:#597c93;}.cls-66{fill:#a9825d;}.cls-67{fill:#a07353;}.cls-68{fill:#995f3b;}.cls-69,.cls-76{fill:#935b47;}.cls-70{fill:#678ab1;}.cls-72{fill:#9dc3db;}.cls-73{fill:#6f96c2;}.cls-74{fill:#bc9a7a;}.cls-75{fill:#b58f72;}</style></defs><g id="OBJECTS"><polygon class="cls-1" points="0 1.166 72.879 348.212 127.834 333.486 94.111 0 0 0 0 1.166"/><path class="cls-2" d="M0,1.166,63.10351,301.665q12.02339-1.2465,24.04489-2.4931c14.2032-1.4727,10.4199-9.8584,8.8692-23.8076L66.01951,0H0Z"/><path class="cls-3" d="M57.68751,199.6836C50.332,167.6626,18.6211,23.2983,8.416,1.9102,5.6777,2.5337,46.6484,186.062,50.1426,201.4023c1.2031,5.251,10.9511,59.92,16.4375,55.9034C73.8711,258.6348,58.8906,205.0146,57.68751,199.6836Z"/><polygon class="cls-2" points="500 1.166 427.121 348.212 372.164 333.486 405.888 0 500 0 500 1.166"/><path class="cls-1" d="M436.80029,302.1143l-9.6797,46.0976-54.957-14.7256L405.88819,0h28.3554c-34.9023,266.8408-49.7265,289.5215-31.4804,295.6025C410.93109,298.3252,424.06789,300.4961,436.80029,302.1143Z"/><path class="cls-3" d="M444.60889,199.6836c7.3554-32.021,39.0664-176.3853,49.2715-197.7734,2.7382.6235-38.2325,184.1518-41.7266,199.4921-1.2051,5.251-10.9512,59.92-16.4395,55.9034C428.42529,258.6348,443.40769,205.0146,444.60889,199.6836Z"/><path class="cls-2" d="M186.6953,219.4839l-6.9687-48.6919c-2.8243-19.7329-4.3477-13.7061,1.6875-30.7163,2.3437-6.6069,4.4785-15.4326,3.2929-23.71-2.2949-16.0493-3.1133-21.7622-3.1133-21.7622l5.4571-.6645,5.4258-.8926s.8183,5.7124,3.1152,21.7617c1.1836,8.2773,5.707,16.1509,9.81049,21.835,10.5625,14.6352,7.41022,9.2773,10.2344,29.0102l6.9277,48.4199c1.0118,7.065-8.12688,8.8492-17.2246,10.0821C196.4668,225.3574,187.6523,226.1826,186.6953,219.4839Z"/><path class="cls-4" d="M186.6933,219.4839l-6.9667-48.6919c-.0352-.2417-.0684-.4771-.1036-.7109,6.64851,9.4697,18.88679,15.3271,38.61329,13.7417l4.3281,30.2504c1.0118,7.065-8.12688,8.8492-17.2246,10.0821C196.4668,225.3574,187.6523,226.1826,186.6933,219.4839Z"/><path class="cls-5" d="M183.0449,91.8975l7.2813-1.042a3.20168,3.20168,0,0,1,3.61131,2.708l2.38479,16.666a3.201,3.201,0,0,1-2.7071,3.6118l-7.2812,1.042a3.20327,3.20327,0,0,1-3.6133-2.708l-2.3848-16.6655A3.20284,3.20284,0,0,1,183.0449,91.8975Z"/><path class="cls-6" d="M179.13837,91.35946H194.7178a.7975.7975,0,0,1,.7975.7975v1.839a.79826.79826,0,0,1-.79826.79826H179.14a.79881.79881,0,0,1-.79881-.79881V92.15664a.79717.79717,0,0,1,.79717-.79717Z" transform="translate(-11.29881 27.41481) rotate(-8.14273)"/><path class="cls-5" d="M187.8047,157.1787l16.25969-2.3266a3.55549,3.55549,0,0,1,4.0118,3.0078l4.8789,34.0908a3.55462,3.55462,0,0,1-3.0078,4.0122L193.68751,198.29a3.55576,3.55576,0,0,1-4.01171-3.0083l-4.8789-34.0908A3.5574,3.5574,0,0,1,187.8047,157.1787Z"/><path class="cls-7" d="M211.82809,184.0806l1.127,7.8701a3.55462,3.55462,0,0,1-3.0078,4.0122L193.68751,198.29a3.55576,3.55576,0,0,1-4.01171-3.0083l-2.545-17.7788C193.10551,181.6006,201.21089,184.0522,211.82809,184.0806Z"/><path class="cls-8" d="M217.43159,216.5864a4.94007,4.94007,0,0,0,1.1778-.6098,1.50847,1.50847,0,0,0,.3144-.3511,4.1414,4.1414,0,0,1,.207-.4683c.18172-.0019.1739.4873.1622.5874a1.38848,1.38848,0,0,1-.2657.604,3.61327,3.61327,0,0,1-1.2207,1.0166c-4.4687,2.5899-30.873,6.5401-28.07808,1.9038-.00781-.6616,2.209.8472,7.05859.5669A128.54573,128.54573,0,0,0,217.43159,216.5864Z"/><path class="cls-9" d="M180.9883,95.3984c1.3164-.227,14.5605-2.1362,14.6699-1.3642-.3789.7422-12.6914,2.6074-14.3555,2.894-2.0117.3462-2.0683.6118-2.5156-.2319C178.1914,95.7275,179.1582,95.7383,180.9883,95.3984Z"/><path class="cls-9" d="M185.8183,114.915l-2.6171-18.2949c-.5098.082-.9473.1524-1.2891.208-.26759.043-.4727.0772-.6094.1001-.2851.0493-.5293.0967-.7441.1392l2.1621,15.1079a3.207,3.207,0,0,0,3.0976,2.7397Z"/><path class="cls-8" d="M216.33789,193.1099q-.9405-7.46415-1.9356-14.919c-.9355-6.9834-1.8984-13.9575-2.998-20.9175-1.4219-9.6821-.6953-7.4565-5.5059-14.8125-1.1875-1.8134-2.33788-3.6718-3.5215-5.3842a72.784,72.784,0,0,1-3.9707-6.4786c-2.49609-4.6167-4.66989-9.9877-4.34179-14.0761,2.16611,6.2705,5.19729,14.5898,9.11329,19.9814,2.2813,3.1748,4.4981,6.9673,7.0039,9.8662a3.83071,3.83071,0,0,1,.58992,1.2915c.22848.7373.40818,1.4815.57808,2.2334.5371,2.3716.9668,4.7618,1.38092,7.1568,1.19718,6.9599,2.21278,13.9389,3.18548,20.9331q1.0284,7.4619,1.9707,14.9302c.1094.8891,3.041,18.957,1.4199,18.7124C217.85351,212.0479,216.48239,194.2676,216.33789,193.1099Z"/><path class="cls-4" d="M187.6582,197.2139q-1.1895-7.429-2.3242-14.8633c-1.0606-6.9653-2.0918-13.9302-2.9903-20.9185-1.3496-9.6928-1.4218-7.3525,1.1329-15.7627.6308-2.0737,1.2128-4.1801,1.8691-6.1557a72.36054,72.36054,0,0,0,1.9941-7.3316c1.1016-5.1318,1.68171-10.8965.22071-14.7295-.32031,6.6265-.89641,15.462-3.14251,21.7354-1.3008,3.6875-2.3653,7.9497-3.9571,11.4346a3.79958,3.79958,0,0,0-.2051,1.4047c-.0117.7715.0254,1.5367.0723,2.3067.15041,2.4263.4082,4.8413.6817,7.2563.80271,7.0166,1.7851,14,2.8125,20.9868q1.10731,7.4502,2.2949,14.8833c.1465.8838,2.3984,19.0494,3.8867,18.3599C191.5156,215.8164,187.8457,198.3657,187.6582,197.2139Z"/><path class="cls-10" d="M196.873,157.3618c2.06251-.3799,4.20319-.7993,6.27929-1.0586a4.39035,4.39035,0,0,1,2.2891.4209,4.26356,4.26356,0,0,1,.99412.6157,2.18813,2.18813,0,0,1,.709,1.0025c.625,2.5713,3.46288,22.3242,2.97458,24.1328-.9472-1.2378-3.6015-19.7832-4.6855-23.583.00392.0171-.0879-.0977-.16208-.1587a2.5654,2.5654,0,0,0-.57422-.3306,2.68729,2.68729,0,0,0-1.2774-.2465c-2.06638.3315-4.1387.726-6.19729,1.1054-1.5585.2866-9.5097,2.5684-9.5859.8311C187.2324,158.3198,195.123,157.6914,196.873,157.3618Z"/><path class="cls-10" d="M193.6074,99.6392c.2344,1.6372,1.49811,11.4389.832,12.4228-.6933.1045-2.58589-11.102-2.7421-12.1352-.1993-1.3809-.9454-3.5772.36521-3.6363C193.4336,95.9355,193.3789,98.2104,193.6074,99.6392Z"/><path class="cls-11" d="M231.26369,36.7485c-16.5606,7.9136-24.4239,38.8736-13.28318,116.316,11.13858,77.4433,31.57418,180.7343,50.27288,193.6005,18.6973,12.8663,44.418,1.542,28.2949-113.6484-8.30078-59.3115-16.8164-114.7563-28.9765-150.6167C256.11469,48.6138,241.06251,32.5347,231.26369,36.7485Z"/><path class="cls-12" d="M229.83009,37.5073c-15.5723,9.0137-22.6641,40.3867-11.84958,115.5572,11.13858,77.4433,31.57418,180.7343,50.27288,193.6005,12.6543,8.708,28.5215,6.3233,32.4609-31.831-9.8886,2.9355-19.3535,1.9726-26.8496-6.0361-28.687-30.6446-33.228-84.7916-44.09518-159.7657C220.46089,84.8198,219.05269,62.1426,229.83009,37.5073Z"/><path class="cls-13" d="M227.89059,42.9365a.65737.65737,0,0,1,1.209.5166c-3.9805,9.3169-5.62108,19.3301-5.127,36.4546.4961,17.2144,3.1426,41.5786,7.7286,79.5401,4.6621,38.5835,10.5449,71.7543,17.2851,97.0122,6.4937,24.3369,13.7573,41.2773,21.4605,48.5644a.65594.65594,0,1,1-.9004.9541c-7.8887-7.4619-15.2754-24.6123-21.8316-49.1797-6.7519-25.3076-12.6445-58.539-17.3164-97.1899-4.5918-38.0054-7.2402-62.4019-7.7383-79.6592C222.16209,62.6021,223.834,52.4321,227.89059,42.9365Z"/><path class="cls-14" d="M263.01119,80.5806c7.3594,24.4599,30.0059,128.0776,23.6446,149.4419-3.1622-7.7676-18.99028-109.6216-27.8067-138.4327l-2.6953-8.8046c-2.2305-6.6153-12.0288-25.4024-7.71628-27.253C254.53469,50.2109,262.14789,78.0737,263.01119,80.5806Z"/><path class="cls-12" d="M237.82419,127.6772c5.002-.892,38.80232-6.728,40.9995-2.4545-1.1347,2.3667-35.1694,8.6552-39.6655,9.5317-5.7149,1.0278-7.6914,2.4512-8.3106-1.8613C229.85551,128.332,231.93939,128.8613,237.82419,127.6772Z"/><path class="cls-12" d="M234.47069,96.083c3.5781-.5898,27.771-4.3833,29.6147-.0351-.6875,2.2714-25.021,6.4985-28.2338,7.102-4.0879.6821-5.4395,1.9727-6.1387-2.3228C228.72459,96.2646,230.26759,96.9092,234.47069,96.083Z"/><path class="cls-12" d="M246.28319,194.2949c5.0015-.8921,38.8022-6.728,40.9995-2.4546-1.1367,2.3667-35.168,8.6553-39.6655,9.5318-5.7168,1.0278-7.6914,2.4511-8.3106-1.8614C238.31251,194.9497,240.39651,195.479,246.28319,194.2949Z"/><path class="cls-12" d="M259.07959,267.5928c4.4648-.7783,34.6328-5.8428,36.6972-1.541-.9668,2.331-31.3339,7.8408-35.3457,8.6142-5.1015.8965-6.8398,2.2705-7.4902-2.0351C251.95069,268.0684,253.82959,268.6416,259.07959,267.5928Z"/><path class="cls-12" d="M244.92379,162.2769c4.6543-.8184,36.105-6.1548,38.2163-1.8633-1.0254,2.3432-32.6889,8.1279-36.87058,8.9375-5.31832.9433-7.14062,2.3344-7.77932-1.9737C237.498,162.8154,239.44919,163.3735,244.92379,162.2769Z"/><path class="cls-12" d="M253.38229,228.8945c4.6543-.8183,36.1035-6.1548,38.2168-1.8632-1.0273,2.3437-32.6875,8.1279-36.8711,8.9375-5.3179.9433-7.1421,2.3339-7.7807-1.9737C245.957,229.4336,247.90819,229.9912,253.38229,228.8945Z"/><path class="cls-15" d="M193.3437,324.748l-30.8066,10.8487s-9.6172-.5742-14.2441-13.709L98.9629,181.8066c-1.3203-3.3593-.7559-1.3881.6347-3.7695a2.95489,2.95489,0,0,0,.2422-2.4809h0a2.97357,2.97357,0,0,0-2.2441-1.9249c-2.3184-.4506-1.3906.3423-2.4981-2.7973l-3.6953-10.4937a47.547,47.547,0,0,1,3.8946-30.0864c7.6172-15.7808,7.5605-24.8086,3.6972-35.7812L95.1308,83.5l11.793-4.1528,11.793-4.1534,3.8633,10.9727c3.8652,10.9722,9.4785,18.043,25.3047,25.5684a47.54962,47.54962,0,0,1,21.88471,21.0078l3.69729,10.4936c1.1055,3.1397,1.3301,1.9409-.19529,3.7442a2.97565,2.97565,0,0,0-.543,2.9072v.0005a2.96215,2.96215,0,0,0,1.74409,1.7812c2.5762.9849,1.7793-.9052,2.8575,2.5396l49.33,140.081c4.627,13.1348-2.5117,19.6094-2.5117,19.6094Z"/><path class="cls-16" d="M113.125,77.1631l2.1113-.7437c4.5313,8.2144,16.6563,30.5459,18.3535,32.566,23.3614,22.8549,21.7559,9.5639,32.5176,41.7607,9.6055,26.6103,18.6328,53.6357,27.7012,80.4375,2.0137,5.9766,32.15039,87.416,24.24019,83.8935-5.248,7.1065-20.29689-45.623-22.50389-52.0625l-9.9492-29.0556c-8.9844-26.6738-18.3008-54.0425-25.9043-81.1367-9.6523-30.7549-6.54689-17.0381-29.4121-40.6392C127.4629,108.499,115.2578,86.1948,113.125,77.1631Z"/><path class="cls-17" d="M221.87689,310.4424a12.9332,12.9332,0,0,0,1.51762-2.8311c1.42578-3.873.81838-8.1826-.52152-11.9873L173.5644,155.6074c-.1718-.0561-.3457-.1186-.5253-.187a6.96913,6.96913,0,0,1-3.2364-10.5078c-.0429-.1128-.084-.2266-.125-.3423l-.5273-1.4975-74.0274.8422a44.90626,44.90626,0,0,0-.625,7.0796,36.247,36.247,0,0,0,.7539,8.1866L98.8867,169.5c.0391.1157.0801.2305.1172.3452a6.969,6.969,0,0,1,4.0625,10.2168q-.14655.24765-.293.4751L152.082,320.5537c1.3399,3.8057,3.56451,7.544,7.10351,9.669a12.8134,12.8134,0,0,0,2.95709,1.2548Z"/><path class="cls-18" d="M163.4883,143.1372l-6.8946.0786c.88481,2.6138,1.8907,5.7627,3.0977,9.6065,7.6035,27.0942,16.9199,54.4629,25.9043,81.1367l9.9492,29.0556c1.7774,5.1866,11.88279,40.3917,18.49219,50.1875l5.2129-1.8349c-1.791-15.7442-23.73239-75.1133-25.44139-80.1836-9.0684-26.8018-18.0957-53.8272-27.7012-80.4375C165.14451,147.8628,164.2812,145.3496,163.4883,143.1372Z"/><path class="cls-5" d="M93,74.6172l21.4258-7.5449a4.02379,4.02379,0,0,1,5.1172,2.4511l4.7031,13.356-28.9942,10.21-4.7031-13.356A4.02481,4.02481,0,0,1,93,74.6172Z"/><path class="cls-17" d="M97.3008,95.0693l26.5898-9.3642a1.5327,1.5327,0,0,1,1.9492.9341h0a1.53248,1.53248,0,0,1-.9336,1.9492L98.3164,97.9526a1.53613,1.53613,0,0,1-1.9512-.934h0A1.53525,1.53525,0,0,1,97.3008,95.0693Z"/><path class="cls-17" d="M120.3867,79.9375c-5.9629,2.1001-10.2344,3.604-16.19919,5.7041-3.56061,1.2549-5.70121,2.773-6.90631-.6484l-.705-2.0025-2.709-7.6928-.3086-.877L93,74.6172a4.02506,4.02506,0,0,0-2.4512,5.1162l4.7031,13.356,2.8965-1.0196,23.586-8.3061,2.5117-.8843-1.3477-3.8267Z"/><path class="cls-17" d="M96.0918,77.7856a.66364.66364,0,0,1,1.2519-.4409l4.25,12.0679a.66364.66364,0,0,1-1.2519.4409Z"/><path class="cls-17" d="M101.9062,75.7388a.66274.66274,0,1,1,1.25-.4409l4.25,12.0678a.66357.66357,0,0,1-1.2519.4405Z"/><path class="cls-17" d="M107.7187,73.6914a.66368.66368,0,1,1,1.252-.4409l4.25,12.0679a.6636.6636,0,0,1-1.252.4404Z"/><path class="cls-17" d="M113.5312,71.6445a.66368.66368,0,0,1,1.252-.4409l4.25,12.0679a.6636.6636,0,0,1-1.252.4404Z"/><path class="cls-19" d="M130.76951,251.7686a.66377.66377,0,1,1-.44141-1.252l65.9297-23.2178a.66353.66353,0,1,1,.4414,1.2515Z"/><path class="cls-19" d="M135.5371,265.3076a.66329.66329,0,0,1-.4414-1.251l65.92969-23.2187a.66372.66372,0,1,1,.4414,1.2519Z"/><path class="cls-19" d="M140.3047,278.8477a.66377.66377,0,0,1-.4414-1.252l65.93159-23.2178a.66329.66329,0,0,1,.4414,1.251Z"/><path class="cls-19" d="M145.0723,292.3867a.66374.66374,0,0,1-.4415-1.2519l65.93171-23.2178a.66372.66372,0,0,1,.44138,1.2519Z"/><path class="cls-19" d="M149.8398,305.9258a.663.663,0,1,1-.4394-1.251l65.92969-23.2187a.66372.66372,0,1,1,.44142,1.2519Z"/><path class="cls-19" d="M154.6074,319.4658a.66339.66339,0,1,1-.4394-1.2519l65.93159-23.2178a.663.663,0,1,1,.4395,1.251Z"/><path class="cls-20" d="M189.5742,201.0713l-14.7891-42c-14.9121,5.2353-37.2753,13.0874-70.8164,24.8642l14.8829,42.2588Z"/><path class="cls-16" d="M169.7226,160.8491l-7.0097,2.461c4.1855,14.1806,8.7637,28.4023,13.4472,42.5263l8.1055-2.8789Q177.11135,181.85715,169.7226,160.8491Z"/><path class="cls-21" d="M115.2461,144.147c6.5625-.0489,47.6133-.1167,51.2656,1.5849.0156,1.4869-47.1797,2.4375-51.2187,2.4834-1.8262.0147-14.98249,1.5293-14.3672-1.7373C100.1777,142.9175,113.3242,144.1772,115.2461,144.147Z"/><path class="cls-19" d="M103.373,175.3101a.66353.66353,0,1,1-.4414-1.2515l65.9297-23.2178a.66353.66353,0,1,1,.4414,1.2515Z"/><path class="cls-22" d="M181.1992,231.8252c-6.2031,2.1426-49.2676,17.5527-50.6406,15.2051-2.5606-4.9688,46.5273-18.0801,49.29691-19.0459,2.76949-.9658,13.70889-6.2354,14.16989-2.9434C195.8711,228.1763,183.0117,231.1816,181.1992,231.8252Z"/><path class="cls-22" d="M186.81251,245.1807c-6.20311,2.1425-50.50391,18.6591-50.63871,15.3603-.9922-4.206,46.5254-18.2353,49.2949-19.2012,2.7696-.9658,13.709-6.2353,14.17-2.9433C201.48439,241.5313,188.625,244.5371,186.81251,245.1807Z"/><path class="cls-22" d="M191.01951,258.3955c-6.20311,2.1426-49.88081,18.4961-51.10151,15.834-1.4688-4.9805,46.9882-18.709,49.7578-19.6748,2.7695-.9658,13.709-6.2354,14.16989-2.9434C205.69139,254.7471,192.832,257.7529,191.01951,258.3955Z"/><path class="cls-22" d="M196.4766,271.7529c-6.2032,2.1426-50.6563,18.9727-50.795,15.3623-.5468-6.3955,46.6817-18.2373,49.4512-19.2031s13.709-6.2353,14.16989-2.9433C211.14839,268.1035,198.28909,271.1094,196.4766,271.7529Z"/><path class="cls-22" d="M201.78319,285.5791c-6.20309,2.1436-52.37309,18.8369-50.94529,15.833-3.502-5.4258,46.832-18.707,49.60149-19.6728,2.7696-.9659,13.709-6.2354,14.17-2.9444C216.45509,281.9307,203.59569,284.9365,201.78319,285.5791Z"/><path class="cls-22" d="M205.83589,298.9521c-6.2031,2.1426-50.65819,18.8174-51.25969,15.6807-2.7032-3.875,47.14639-18.5547,49.916-19.5205,2.7695-.9658,13.709-6.2353,14.1699-2.9443C220.50979,295.3037,207.64839,298.3086,205.83589,298.9521Z"/><path class="cls-22" d="M210.18159,313.4355c-5.2812,1.8731-43.81829,15.7637-47.23039,15.1456-7.9434-4.3038,43.72069-18.1973,46.07809-19.042,2.3594-.8457,11.6699-5.6387,12.0703-2.3291C222.67579,310.4238,211.72459,312.8711,210.18159,313.4355Z"/><path class="cls-23" d="M139.5039,280.7432c-7.002-18.3682-14.0801-36.6973-20.94139-55.1192-6.17971-16.7334-12.20511-33.4399-17.18751-50.5776a170.77078,170.77078,0,0,1-4.5586-18.8027c-.6816-3.9898-1.3691-8.3843-.3457-12.3697,7.4414-22.5195,5.7617-18.0483,11.0351-39.1333,5.3438,9.1406-3.86129,31.5244-6.2539,40.3516-.4628,2.9516.3965,7.1816,1.002,10.0747,1.4297,6.1089,3.26561,12.0098,5.2227,17.9673,5.7128,16.7256,12.1171,33.1694,18.5781,49.6167,7.2051,18.2939,14.5293,36.542,21.54881,54.9072,1.73629,4.6475,18.84959,42.917,10.88869,43.4014C151.7383,324.6348,140.9687,284.6123,139.5039,280.7432Z"/><path class="cls-9" d="M101.6074,143.8413l-5.1426.0586c-1.0136,3.9785-.3281,8.3623.3516,12.3438.8184,4.768,1.9336,9.3715,3.1953,13.9848a6.96461,6.96461,0,0,1,3.0547,9.8335c-.04489.0752-.08789.1489-.1328.2217q.93165,3.06735,1.9043,6.1186l15.2558,43.3204c6.3809,17.0429,12.92781,34.0146,19.4102,51.0205,1.4648,3.8691,12.2344,43.8916,18.9883,40.3164,7.9609-.4844-9.1524-38.7539-10.88869-43.4014C140.584,259.293,133.2598,241.0449,126.0547,222.751c-5.1504-13.1148-10.2676-26.2281-15.0274-39.4834q-1.8105-5.05155-3.5507-10.1333c-1.95709-5.9575-3.793-11.8584-5.2227-17.9673-.6055-2.8931-1.4648-7.1231-1.002-10.0747C101.3574,144.7017,101.4766,144.2832,101.6074,143.8413Z"/><path class="cls-24" d="M130.76951,251.7686a.66377.66377,0,1,1-.44141-1.252l5.8848-2.0732.4883,1.2353Z"/><path class="cls-24" d="M135.5371,265.3076a.66329.66329,0,0,1-.4414-1.251l6.375-2.2451.4844,1.2364Z"/><path class="cls-24" d="M140.3047,278.8477a.66377.66377,0,0,1-.4414-1.252l6.7988-2.3945.4766,1.2392Z"/><path class="cls-24" d="M145.0723,292.3867a.66374.66374,0,0,1-.4415-1.2519l7.4102-2.6084q.24315.6078.4902,1.2334Z"/><path class="cls-24" d="M149.8398,305.9258a.663.663,0,1,1-.4394-1.251l7.6445-2.6924q.21091.63285.416,1.2598Z"/><path class="cls-24" d="M153.9043,318.3857a.66824.66824,0,0,1,.2637-.1718l6.3632-2.2412c.0411.4921.0625.9541.0586,1.3867l-5.8808,2.0703C154.4433,319.1172,154.1738,318.7666,153.9043,318.3857Z"/><path class="cls-25" d="M110.4531,181.6592l-6.4023,2.248q.39257,1.24875.7871,2.4951l14.0137,39.792,7.5097-2.667-.3066-.7763C120.6953,209.106,115.373,195.4629,110.4531,181.6592Z"/><path class="cls-26" d="M101.123,147.3115a.99.99,0,0,1-.1972-.8335,1.17414,1.17414,0,0,1,.2832-1.0766A13.69291,13.69291,0,0,0,101.123,147.3115Z"/><path class="cls-24" d="M103.373,175.3101a.66353.66353,0,1,1-.4414-1.2515l4.3457-1.5308.1993.6065.2226.6518Z"/><path class="cls-27" d="M135.4922,246.6172c-2.8281.6533-4.668.8682-4.9336.4131-.49809-.9658.96091-2.2393,3.6445-3.6709Q134.84765,244.98825,135.4922,246.6172Z"/><path class="cls-27" d="M140.9219,260.4092c-2.9161.6572-4.7207.7939-4.7481.1318-.1777-.7519,1.2031-1.8203,3.59571-3.0703Q140.3467,258.93995,140.9219,260.4092Z"/><path class="cls-27" d="M146.0391,273.5791c-3.5274.9014-5.85359,1.2363-6.1211.6504-.3086-1.0449,1.5878-2.4756,4.7929-4.0928Q145.376,271.85645,146.0391,273.5791Z"/><path class="cls-27" d="M151.3828,286.8906c-3.4707.8203-5.6699,1.0225-5.7012.2246-.1035-1.2002,1.4766-2.5918,4.13091-4.0683C150.291,284.208,150.8203,285.5,151.3828,286.8906Z"/><path class="cls-27" d="M156.6094,300.7031c-3.8008,1.0303-6.1075,1.417-5.7715.709-.7696-1.1933,1.0644-2.7666,4.4219-4.5049C155.7207,298.1689,156.1738,299.4395,156.6094,300.7031Z"/><path class="cls-27" d="M160.3183,314.2275c-3.416.833-5.6113,1.085-5.7421.4053-.6075-.8721,1.4472-2.291,5.0234-3.9765C159.9043,311.9277,160.1484,313.127,160.3183,314.2275Z"/><path class="cls-28" d="M112.5957,70.6421c-1.9004.6753-16.832,5.6186-17.8359,5.1401.4296-1.0556,15.2265-6.0571,17.2304-6.7885,1.5117-.5601,2.9824-1.6534,3.4981-.5586C116.2851,69.6821,113.8984,70.1436,112.5957,70.6421Z"/><path class="cls-29" d="M110.4531,181.6592l-6.4023,2.248q.38956,1.24665.7871,2.4903v.0048l9.51761,27.0274,1.00779,2.8584,3.4883,9.9062,5.6542-2.0083.3028-.1074,1.5527-.5513.4024-.1435.0293-.0103,1.9707-.6997.1171-.0415,7.3008-2.5937,2.0078-.7134,25.7579-9.1494,2.4199-.8604,7.5215-2.6718.0019-.0005,2.2695-.8067q-.75285-2.2719-1.5019-4.5473v-.0025c-.0606-.1797-.1191-.3598-.17769-.5395q-.23731-.71775-.47271-1.4366-1.67865-5.11365-3.3281-10.2392-.82335-2.5671-1.6387-5.1358c-3.8066.2774-8.1191.5874-13.0019.9336-17.4883,1.2403-29.0899-.062-36.9629-3.3188a30.08144,30.08144,0,0,1-3.4786-1.6973q-1.043.3663-2.0996.7373-.59174.2073-1.1894.4175Q111.38865,181.33075,110.4531,181.6592Z"/><path class="cls-29" d="M178.3613,185.6431q2.06835,6.03,4.1211,12.0673l.002.002q.89055,2.62275,1.7812,5.2451l5.3086-1.8862-5.0254-14.2754-.7051-1.9961-.6757-1.9199c-1.5196.1177-3.1993.2456-5.0547.3852-.1836.0137-.3672.0274-.5547.0415q.1641.4842.332.9683v.001C178.0469,184.7314,178.2051,185.187,178.3613,185.6431Z"/><path class="cls-30" d="M290.72609,327.5752,260.56,315.6836s-6.8457-6.6856-1.7734-19.5479l54.0762-137.1753c1.1953-3.3784.3359-1.5322,2.92772-2.415a2.93841,2.93841,0,0,0,1.79488-1.7036v-.0005a2.95222,2.95222,0,0,0-.4336-2.9043c-1.44528-1.8447-1.2656-.6474-.0527-3.7217l4.0508-10.2758a47.21148,47.21148,0,0,1,22.4844-20.0411c15.9765-6.8867,21.8047-13.6963,26.041-24.4414l4.2363-10.7446,11.5488,4.5527,11.5489,4.5528-4.2364,10.7446c-4.2363,10.7451-4.6211,19.7002,2.3575,35.6367a47.21331,47.21331,0,0,1,2.7617,29.9932l-4.0528,10.2759c-1.2109,3.0742-.2617,2.3217-2.5781,2.6836a2.95409,2.95409,0,0,0-2.2988,1.8276h0a2.93758,2.93758,0,0,0,.1504,2.4707c1.291,2.4136,1.9238.478.4922,3.7627l-54.0762,137.1758c-5.07228,12.8623-14.6367,13.0791-14.6367,13.0791Z"/><path class="cls-31" d="M378.08929,74.6631l20.9825,8.2715a3.99542,3.99542,0,0,1,2.2441,5.166l-5.1562,13.0786-28.3926-11.1924,5.1562-13.0791A3.99573,3.99573,0,0,1,378.08929,74.6631Z"/><path class="cls-32" d="M368.01709,92.8032l26.039,10.2652a1.52392,1.52392,0,0,1,.8555,1.9682h0a1.52284,1.52284,0,0,1-1.9687.855L366.90379,95.627a1.52106,1.52106,0,0,1-.8555-1.9683h0A1.52217,1.52217,0,0,1,368.01709,92.8032Z"/><rect class="cls-33" x="309.1193" y="162.29901" width="61.00358" height="82.48892" transform="translate(25.70435 444.84974) rotate(-68.48462)"/><rect class="cls-34" x="340.32183" y="208.12195" width="61.00371" height="15.42015" transform="translate(34.03149 481.66033) rotate(-68.48471)"/><path class="cls-16" d="M374.83739,184.6279l14.3457,5.6553.4219-1.0703c1.4316-3.2847.7988-1.3491-.4922-3.7627a2.93317,2.93317,0,0,1,2.1484-4.2983c2.3164-.3619,1.3672.3906,2.5781-2.6836l4.0528-10.2759a47.21331,47.21331,0,0,0-2.7617-29.9932c-6.3536-14.5088-6.6036-23.2309-3.4004-32.7856l-4.3438-1.7124c-3.38468,9.4824-4.3281,17.7348-1.8808,30.7031,2.6875,14.2446-1.959,28.1328-1.959,28.1328l-4.0528,10.2759c-1.2109,3.0742-.4726,2.2388-2.0859,2.8774a3.54863,3.54863,0,0,0-1.7891,2.0293,3.85319,3.85319,0,0,0-.2128,2.3272c.5664,2.1274,1.2402.209-.1465,3.5112Z"/><path class="cls-16" d="M366.81,247.0361l-14.3457-5.6552-31.2812,79.3525c-5.0723,12.8623-11.5684,14.2881-11.5684,14.2881l11.2774,4.4463s9.56442-.2168,14.6347-13.0791Z"/><path class="cls-35" d="M273.13229,301.791l31.2813-79.3525-14.3457-5.6553-31.2813,79.3525c-5.0723,12.8623,1.7734,19.5479,1.7734,19.5479l11.2774,4.4453S268.06,314.6533,273.13229,301.791Z"/><path class="cls-35" d="M312.44089,160.0308l14.3457,5.6547.42192-1.0698c1.23828-3.3608.42188-1.4985,2.28708-2.667a3.83266,3.83266,0,0,0,1.4316-1.8471,3.54335,3.54335,0,0,0,.0782-2.7037c-.7422-1.5673-.7735-.4531.4394-3.5273l4.0508-10.2759s6.0801-13.3232,17.7656-21.9013c10.6387-7.8101,15.5781-14.4864,19.5742-23.7281l-4.3437-1.7124c-4.1777,9.17-10.3125,15.3755-24.8574,21.6455a47.21148,47.21148,0,0,0-22.4844,20.0411l-4.0508,10.2758c-1.2129,3.0743-1.39258,1.8765.0527,3.7217a2.93362,2.93362,0,0,1-1.36128,4.6084c-2.59182.8828-1.73242-.9634-2.92772,2.415Z"/><rect class="cls-36" x="277.92552" y="183.52447" width="61.00344" height="15.42006" transform="translate(17.4109 408.0466) rotate(-68.48694)"/><path class="cls-32" d="M395.17719,96.4629c-5.8398-2.3023-10.0214-3.9512-15.8632-6.2534-3.4883-1.375-6.0801-1.628-4.7598-4.9781l.7734-1.9609,2.9688-7.5337.3398-.8584-.5469-.2153a3.99473,3.99473,0,0,0-5.166,2.2446l-5.1562,13.0791,2.8359,1.1177,23.0977,9.1055,2.459.9692,1.4765-3.7471Z"/><path class="cls-32" d="M378.43309,77.5596a.65828.65828,0,1,1,1.2246.4834l-4.65818,11.8174a.65922.65922,0,0,1-1.22662-.4834Z"/><path class="cls-32" d="M384.12451,79.8037a.6592.6592,0,0,1,1.22658.4834l-4.6582,11.8174a.65921.65921,0,0,1-1.2266-.4834Z"/><path class="cls-32" d="M389.81789,82.0479a.65829.65829,0,1,1,1.22462.4834l-4.65822,11.8168a.65819.65819,0,1,1-1.2246-.4829Z"/><path class="cls-32" d="M395.50929,84.292a.65916.65916,0,0,1,1.2265.4834l-4.6582,11.8169a.65907.65907,0,1,1-1.2265-.4829Z"/><rect class="cls-36" x="331.63327" y="180.88956" width="1.31744" height="82.48892" transform="translate(3.76821 449.80401) rotate(-68.48466)"/><rect class="cls-36" x="346.29125" y="143.70781" width="1.31689" height="82.48993" transform="translate(47.64319 439.89833) rotate(-68.48524)"/><path class="cls-35" d="M291.23189,232.1318a.65888.65888,0,1,1,.4844-1.2255l64.5625,25.4521a.65856.65856,0,0,1-.4824,1.2256Z"/><path class="cls-35" d="M286.00539,245.3906a.65891.65891,0,1,1,.4843-1.2256l64.5625,25.4522a.65856.65856,0,0,1-.4824,1.2256Z"/><path class="cls-35" d="M280.77879,258.6494a.65893.65893,0,1,1,.4844-1.2256l64.5625,25.4522a.65856.65856,0,0,1-.4824,1.2256Z"/><path class="cls-35" d="M275.55219,271.9082a.65893.65893,0,1,1,.4844-1.2256l64.5625,25.4512a.65856.65856,0,0,1-.4824,1.2256Z"/><path class="cls-35" d="M270.32569,285.166a.65891.65891,0,1,1,.4843-1.2256l64.56252,25.4522a.65891.65891,0,1,1-.48432,1.2256Z"/><path class="cls-35" d="M265.09909,298.4248a.65856.65856,0,0,1,.48242-1.2256L330.146,322.6514a.65893.65893,0,1,1-.4844,1.2256Z"/><path class="cls-37" d="M242.88079,132.1558c-7.0878-2.3125-12.0468-5.4551-10.33,1.3618a83.04065,83.04065,0,0,1,2.0156,9.5122s-16.0156,42.1802-18.3008,69.8027c-2.28508,27.6236-2.0762,39.4468-2.0762,39.4468s-7.6328,10.3896-5.373,11.0059c2.2598.6162,11.9785-.6534,11.9785-.6534s14.7852,7.7832,25.6152,10.1709c10.8316,2.3868,16.7613,3.4717,16.7613,3.4717s5.9277,1.084,16.9023,2.6856c10.9727,1.6005,27.5567-.4463,27.5567-.4463s8.6406,4.6279,10.9707,4.8515c2.332.2237-1.1289-12.1953-1.1289-12.1953s4.3808-10.9844,12.0214-37.6279c7.6407-26.6431,7.5918-71.7612,7.5918-71.7612a83.23618,83.23618,0,0,1,5.252-8.1831c4.0195-5.7671-1.7324-4.584-9.1797-4.9302-12.5254-7.168-44.3828-12.3848-44.3828-12.3848S257.13429,129.8857,242.88079,132.1558Z"/><path class="cls-38" d="M327.38429,205.5273c-1.7207,16.8819-2.9785,33.9317-10.2383,42.6514-3.10348,3.7266-55.3242-31.7183-57.3106-32.8393-1.0722-.607-.04288,13.7485-2.6171,13.0488-9.0171-2.4527-24.2476-5.2676-24.7183-6.9795-6.0723-22.0879-.8926-49.6553,8.4687-73.3838a76.74086,76.74086,0,0,0-3.7011-13.0386c-1.0528-2.6806-1.7774-4.4018-2.0743-5.436-2.4589-.5527-3.6113.1265-2.6425,3.9673,1.0039,3.9819,1.5234,6.5581,1.7812,8.0117.1836,1.0347.2344,1.5005.2344,1.5005s-16.0156,42.1802-18.3008,69.8027c-2.28508,27.6236-2.0762,39.4468-2.0762,39.4468s-7.6328,10.3896-5.373,11.0059c2.2598.6162,11.9785-.6543,11.9785-.6543s14.7852,7.7841,25.6152,10.1718c10.8316,2.3868,16.7613,3.4717,16.7613,3.4717s5.9277,1.084,16.9023,2.6856c10.9727,1.6005,27.5567-.4463,27.5567-.4463s8.6406,4.6279,10.9707,4.8515c2.332.2237-1.1289-12.1953-1.1289-12.1953s4.3808-10.9844,12.0214-37.6279c7.6407-26.6431,7.5918-71.7612,7.5918-71.7612s.2129-.418.75-1.3204c.7559-1.2685,2.1543-3.4936,4.502-6.8627,2.1094-3.0269,1.5273-4.1387-.5781-4.5625-.6426.8623-1.9317,2.2158-3.8692,4.3554a74.9119,74.9119,0,0,0-7.0918,9.3291C330.27489,173.4268,329.23389,187.3765,327.38429,205.5273Z"/><path class="cls-39" d="M225.20309,171.1177c30.478.5342,85.687,13.0962,110.773,19.1836a274.26332,274.26332,0,0,1-4.3457,34.4243c-35.6582-2.5132-87.7027-12.1714-114.4624-19.4795A263.66521,263.66521,0,0,1,225.20309,171.1177Z"/><path class="cls-40" d="M328.98579,188.6265c2.5215.5971,4.8672,1.1596,6.9903,1.6748v.0166l-.0235.3164c-.0234.3374-.0488.6767-.0742,1.0171l-.0332.4394c-.0254.3311-.0488.6636-.0762.9976l-.0254.3369q-.04395.55365-.0898,1.1123l-.03128.3965c-.02922.3408-.05662.6826-.08592,1.0249l-.041.4629q-.04095.47385-.082.9502l-.0528.5849c-.02728.3008-.0547.6026-.084.9043l-.0507.5469c-.0274.2954-.0567.5918-.084.8887l-.06058.6103c-.02732.2627-.05272.5254-.07812.7881-.0273.2549-.0527.5093-.0801.7647-.0254.2514-.0527.5029-.08.7539-.0274.2685-.0567.5371-.086.8056l-.0625.5674c-.039.3599-.0801.7207-.1211,1.0811l-.041.3549c-.03518.3213-.07418.6421-.1113.9629l-.0664.5503-.0039.0376q-.0645.5208-.1289,1.042l-.0176.1446c-.0625.4951-.125.9907-.1914,1.4848l-.0098.0879q-.10545.7851-.21088,1.5684l-.00592.0395c-.6016,4.3755-1.3144,8.6924-2.1562,12.7847-2.0606-.145-4.1778-.315-6.33988-.5064.86328-5.9516,1.44528-12.3339,2.09378-18.6919C328.00539,199.4316,328.53659,193.8105,328.98579,188.6265Z"/><path class="cls-41" d="M225.20309,171.1177c2.3125.0405,4.7676.1509,7.3399.3218-3.8516,12.1005-6.8653,24.4384-7.8321,35.7636-2.6855-.666-5.2129-1.3208-7.5429-1.957.8281-5.5107,2.0371-11.3496,3.4394-17.1558l.0039-.0132c.125-.5175.25-1.0346.3789-1.5512l.0254-.1011q.3252-1.3161.6621-2.626l.0469-.1801q.16995-.66.3437-1.3174l.0645-.2486c.0898-.3359.17772-.6718.2676-1.0068l.1445-.5361q.12885-.4827.2598-.9639l.0996-.3682q.15525-.56025.3066-1.1167l.0957-.3403q.129-.46515.2578-.9277l.1485-.5249.0097-.0381c.08992-.3189.1797-.6367.2715-.9536l.0157-.0537.1484-.5201c.082-.291.166-.5805.25-.8701l.0976-.3384q.126-.42765.2481-.8525l.1504-.5103.0234-.0771q.13773-.46725.2754-.9307Z"/><path class="cls-13" d="M220.46479,206.7676a.63077.63077,0,0,1,.3184-1.2207c16.8281,4.4004,34.2417,7.9956,51.4429,10.9028,19.8007,3.3477,39.35742,5.7886,57.4336,7.5005a.63156.63156,0,1,1-.1211,1.2573c-18.0645-1.7109-37.6465-4.1567-57.5254-7.5171C254.75729,214.7734,237.30469,211.1709,220.46479,206.7676Z"/><path class="cls-42" d="M227.76369,171.6069a.62987.62987,0,1,1,.0996-1.2558,520.43636,520.43636,0,0,1,54.5405,7.3794c17.9082,3.3149,35.2422,7.2646,51.1836,11.209a.63026.63026,0,1,1-.2988,1.2246c-15.9434-3.9449-33.2598-7.8916-51.1114-11.1958A519.02565,519.02565,0,0,0,227.76369,171.6069Z"/><path class="cls-43" d="M302.57569,143.6387c-20.2344-4.7603-55.3296-8.8574-56.0406-9.2315,3.2969-3.6323,50.6226,5.4893,56.689,6.7622,2.2793.5113,30.293,7.8042,28.0332,9.5523C331.83739,152.9478,316.26509,146.1191,302.57569,143.6387Z"/><path class="cls-38" d="M233.582,244.7246c-.1367,3.54-6.3164.2373-2.3789-2.0537C232.66009,241.8223,233.32229,243.6289,233.582,244.7246Z"/><path class="cls-38" d="M238.09179,241.6133c-.0957,2.4551-4.3809.165-1.6504-1.4238C237.45119,239.6016,237.91009,240.8535,238.09179,241.6133Z"/><path class="cls-38" d="M244.05469,246.2471c-.0957,2.455-4.3809.165-1.6504-1.4239C243.41409,244.2354,243.873,245.4873,244.05469,246.2471Z"/><path class="cls-38" d="M307.09909,253.8604c-2.7988-2.1709,3.48242-5.2754,3.0567-.7413C309.99751,254.7988,308.144,254.2861,307.09909,253.8604Z"/><path class="cls-38" d="M309.01319,259.9873c-1.9414-1.5059,2.414-3.6582,2.1172-.5146C311.021,260.6377,309.73579,260.2822,309.01319,259.9873Z"/><path class="cls-38" d="M300.56979,258.665c-1.9414-1.5058,2.4141-3.6582,2.1172-.5136C302.57759,259.3154,301.29251,258.96,300.56979,258.665Z"/><path class="cls-40" d="M321.021,210.2588c-2.8008-2.1709,3.4824-5.2754,3.0547-.7412C323.91751,211.1968,322.064,210.6841,321.021,210.2588Z"/><path class="cls-40" d="M322.93309,216.3853c-1.9414-1.5054,2.4141-3.6578,2.1172-.5137C324.94089,217.0356,323.65579,216.6802,322.93309,216.3853Z"/><path class="cls-40" d="M314.48969,215.0635c-1.9414-1.5059,2.4141-3.6582,2.1192-.5142C316.49951,215.7134,315.21239,215.3579,314.48969,215.0635Z"/><path class="cls-38" d="M237.33589,168.501c-4.1211-3.1958,5.125-7.7647,4.4961-1.0913C241.59959,169.8809,238.87109,169.1265,237.33589,168.501Z"/><path class="cls-38" d="M241.50979,162.0791c-1.9415-1.5059,2.414-3.6582,2.1191-.5142C243.51951,162.729,242.23239,162.3735,241.50979,162.0791Z"/><path class="cls-38" d="M244.248,169.1821c-2.3437-1.8178,2.9141-4.417,2.5567-.6206C246.67379,169.9673,245.12109,169.5381,244.248,169.1821Z"/><path class="cls-16" d="M356.03269,202.1978a20.19937,20.19937,0,0,1-9.5605,9.4355c-7.59768,3.4526-8.84568,7.4707-13.4805,14.7783-10.3984,16.398-24.41018,42.4888-24.41018,42.4888s-2.62112,7.001,8.83988,16.3066c8.4414,6.8545,33.6504,22.7881,44.7148,14.2784l26.4942-48.6885c4.0898-7.5156,3.53712-6.0586,3.6347-14.3916.0313-2.7842.3731-5.834,1.4688-7.9727l2.5527-4.9848Z"/><path class="cls-2" d="M347.91551,214.811a16.62837,16.62837,0,0,0-6.00192,4.2564,28.68794,28.68794,0,0,0-2.6524,3.7705c-1.1152,1.8105-2.1816,3.6455-3.3222,5.4429-2.85748,4.5063-5.5977,9.0991-8.2872,13.7075-5.4257,9.2949-10.7109,18.7353-15.8085,28.2168a7.176,7.176,0,0,0,.3867,3.0283c1.207,3.6133,4.5136,6.9268,7.39252,9.2637a94.53444,94.53444,0,0,0,18.05858,11.2695c5.2188,2.4902,16.0782,6.9082,21.7793,3.333l26.1055-47.9707c.7461-1.375,1.5332-2.7559,2.2305-4.1562a9.06227,9.06227,0,0,0,.7578-1.8897,10.32869,10.32869,0,0,0,.1875-2.0664c.0176-.8291.0215-1.6592.0215-2.4902.0019-.8213-35.4375-26.396-39.3301-24.4385Q348.727,214.44235,347.91551,214.811Z"/><path class="cls-1" d="M320.83539,253.8711q-4.579,8.127-8.9921,16.334a7.176,7.176,0,0,0,.3867,3.0283c1.207,3.6133,4.5136,6.9268,7.39252,9.2637a94.53444,94.53444,0,0,0,18.05858,11.2695c5.2188,2.4902,16.0782,6.9082,21.7793,3.333l26.1055-47.9707c.4141-.7637.8418-1.5273,1.2578-2.2969a48.62145,48.62145,0,0,0-17.0508-1.7431C353.12251,246.4004,334.89009,255.0273,320.83539,253.8711Z"/><path class="cls-44" d="M347.91551,214.811a20.31682,20.31682,0,0,0-3.50782,1.982c.9414,2.2666,2.9063,4.8623,6.377,7.831,11.0644,9.4649,30.8281,18.2285,37.7636,18.4746l.0059-.0156a10.32869,10.32869,0,0,0,.1875-2.0664c.2754-12.624-7.2305-11.7119-17.8125-18.3589C361.81789,216.9346,354.00729,212.0425,347.91551,214.811Z"/><path class="cls-1" d="M341.103,243.0117c-.2402,3.3897-6.06248.0342-2.2187-2.042C340.30809,240.2012,340.88619,241.9531,341.103,243.0117Z"/><path class="cls-1" d="M345.521,240.167c-.166,2.3506-4.2031.0234-1.5391-1.416C344.97019,238.2178,345.37059,239.4326,345.521,240.167Z"/><path class="cls-1" d="M351.09519,244.792c-.166,2.3506-4.2031.0244-1.5371-1.415C350.54439,242.8438,350.94679,244.0586,351.09519,244.792Z"/><path class="cls-45" d="M354.63039,284.2666c3.6367,2.3525-3.6914,6.7871-3.6426,1.2207C351.00539,283.4258,353.31589,283.8574,354.63039,284.2666Z"/><path class="cls-45" d="M354.17329,277.5869c2.5196,1.6319-2.5586,4.7061-2.5273.8467C351.65969,277.0049,353.26119,277.3037,354.17329,277.5869Z"/><path class="cls-45" d="M362.76319,274.2109c2.5215,1.6309-2.5586,4.7051-2.5254.8457C360.24951,273.6279,361.85109,273.9268,362.76319,274.2109Z"/><path class="cls-46" d="M344.46829,218.1621a.56665.56665,0,1,1,1.0917-.3042c1.0821,3.8506,6.9922,8.4522,14.209,12.6343,10.0059,5.7988,22.461,10.7275,28.2188,11.8057a.56588.56588,0,1,1-.209,1.1123c-5.8535-1.0967-18.4707-6.0811-28.5762-11.9366C351.75929,227.1592,345.64209,222.3379,344.46829,218.1621Z"/><path class="cls-47" d="M353.87839,194.8281c-1.91988,3.4024-1.7246,8.19,6.0742,14.8599,11.836,10.1255,33.62892,19.4497,39.0235,18.4009,2.3457-.4566,4.1445-2.2535,5.4277-4.1377,3.8008-5.5855-7.1895-15.2534-19.6465-22.7881C372.019,193.457,357.72219,188.0181,353.87839,194.8281Z"/><path class="cls-48" d="M368.79051,202.0522a137.19034,137.19034,0,0,0,20.19528,11.9727c8.293,3.9487,12.09572,2.334,5.6328-3.0435a96.36432,96.36432,0,0,0-9.9902-6.9751,88.84243,88.84243,0,0,0-14.6133-7.6508C361.55219,193.2764,363.29639,197.9224,368.79051,202.0522Z"/><path class="cls-49" d="M364.00151,195.9614a.56681.56681,0,0,1,1.11518-.2036c.25,1.3428,1.4902,2.9736,3.3496,4.7173,3.7969,3.5615,10.0898,7.4751,15.9238,10.4097,5.77742,2.9062,11.0469,4.8457,12.8965,4.5024a.57435.57435,0,0,0,.29692-.1152.56585.56585,0,1,1,.82618.7734,1.62562,1.62562,0,0,1-.92.457c-2.0879.3877-7.6347-1.601-13.6074-4.6064-5.918-2.9761-12.3105-6.9565-16.1894-10.5942C365.66359,199.3989,364.29829,197.5615,364.00151,195.9614Z"/><path class="cls-50" d="M402.99169,220.894c-5.3945,1.0489-27.1875-8.2753-39.0254-18.4003-4.75978-4.0723-6.6875-7.4424-7.0293-10.2242a5.64352,5.64352,0,0,0-3.0586,2.5586c-1.3535,2.3965-1.6562,5.481,1.0098,9.4263a27.8912,27.8912,0,0,0,5.0644,5.4336c9.5352,8.1567,25.5313,15.793,34.211,17.9062a12.66662,12.66662,0,0,0,4.8125.4947c2.3457-.4566,4.1445-2.2535,5.4277-4.1377a4.66386,4.66386,0,0,0,.6035-3.8257A6.49149,6.49149,0,0,1,402.99169,220.894Z"/><path class="cls-49" d="M403.00339,220.9595c-2.8652.5571-10.3242-1.7925-18.4648-5.6309-7.2442-3.4155-15.0352-8.0107-20.6153-12.7847a27.65642,27.65642,0,0,1-5.1855-5.6093,11.05688,11.05688,0,0,1-1.8574-4.5733,5.91038,5.91038,0,0,0-1.6856.9781,5.44261,5.44261,0,0,0-1.2578,1.521,7.34015,7.34015,0,0,0-.9941,4.0966,10.49994,10.49994,0,0,0,2,5.2603,22.0408,22.0408,0,0,0,2.08,2.5903,35.51464,35.51464,0,0,0,2.9707,2.8301,89.864,89.864,0,0,0,16.1934,10.5796,87.61968,87.61968,0,0,0,17.9922,7.312,21.36427,21.36427,0,0,0,2.82232.5171,6.93862,6.93862,0,0,0,1.96278-.023,6.82181,6.82181,0,0,0,2.8301-1.3193,11.97179,11.97179,0,0,0,2.5528-2.79,4.2534,4.2534,0,0,0,.6972-1.7481,5.19711,5.19711,0,0,0-.082-1.938,6.96533,6.96533,0,0,1-.9258.4351,6.19564,6.19564,0,0,1-1.0332.2964Zm-18.4082-5.7515c8.1172,3.8272,15.543,6.1729,18.3828,5.6206a6.15762,6.15762,0,0,0,1.0117-.29,6.74653,6.74653,0,0,0,.9844-.4707l.0176-.0074a.06572.06572,0,0,1,.0801.0499,5.3872,5.3872,0,0,1,.1035,2.0766,4.3648,4.3648,0,0,1-.71678,1.8023,12.08075,12.08075,0,0,1-2.584,2.8208,6.94731,6.94731,0,0,1-2.88672,1.3442,7.05745,7.05745,0,0,1-1.9981.0249,21.59718,21.59718,0,0,1-2.8418-.52,87.83174,87.83174,0,0,1-18.02338-7.3233,89.92436,89.92436,0,0,1-16.21682-10.5971,36.04875,36.04875,0,0,1-2.9824-2.8404,22.07652,22.07652,0,0,1-2.09378-2.6064,10.64574,10.64574,0,0,1-2.02152-5.3276,7.48015,7.48015,0,0,1,1.0098-4.169,5.60989,5.60989,0,0,1,1.2891-1.5586,6.0797,6.0797,0,0,1,1.8027-1.0293l.0176-.0044a.0654.0654,0,0,1,.07232.0581,10.82414,10.82414,0,0,0,1.84958,4.6001,27.47391,27.47391,0,0,0,5.1582,5.5816C369.58151,207.208,377.36079,211.7969,384.59519,215.208Z"/><path class="cls-51" d="M292.55809,216.8643c-2.584-34.938-6.3125-69.0269-20.3965-69.4375-18.16008-.5293-14.6875,49.8222-10.1035,98.6191,3.4707,36.9678,19.40042,53.4697,27.707,32.6172C297.07369,260.3115,293.99359,236.2803,292.55809,216.8643Z"/><path class="cls-52" d="M285.05609,179.4985c1.7071,10.3365,6.1836,57.4038,5.0196,76.0786-.3164,5.0782-1.8555,9.8965-3.0879,1.4668-1.586-10.8574-3.1211-34.4799-5.3555-53.396-2.914-24.6562-5.5976-43.832-4.1582-44.0087C281.34129,157.0308,284.63429,177.4331,285.05609,179.4985Z"/><path class="cls-53" d="M269.21429,147.8467c-14.8027,4.9018-11.4746,52.2363-7.1562,98.1992,2.0488,21.8184,8.4375,36.5029,15.0371,40.5918-3.1191-15.041-4.082-45.459-5.9316-77.6006C269.32759,177.126,266.23969,160.4399,269.21429,147.8467Z"/><path class="cls-54" d="M281.855,155.1567a23.6209,23.6209,0,0,0-1.9317-3.0869c3.5821,18.0176,7.57822,46.6851,8.3809,82.2544.4668,20.6084.69732,35.3467.793,45.8906.2265-.4941.4492-1.0068.6679-1.5517q.3165-.7998.60942-1.6123c-.10942-10.3018-.33792-24.1436-.75592-42.7559a499.63843,499.63843,0,0,0-7.7636-79.1382Zm-5.89648-6.6953c1.75,35.8228,5.90228,117.9605,6.96288,138.9263a5.81938,5.81938,0,0,1-1.29688.3447c-1.043-20.6211-5.26952-104.2095-7.00982-139.8628a8.72372,8.72372,0,0,1,1.34382.5918Zm-7.95122-.0996a8.69142,8.69142,0,0,0-1.5195,1.0186c-3.5195,20.0434-.457,56.5425,1.9316,84.9887.5528,6.5918,1.0703,12.751,1.461,18.1768,1.1113,15.4355,3.1074,25.6924,4.8964,32.209a13.55025,13.55025,0,0,0,1.7911,1.5342c-1.8731-6.2178-4.15238-16.8262-5.377-33.836-.3887-5.417-.9062-11.5879-1.4609-18.1924C267.29439,205.2529,264.15379,167.8364,268.00729,148.3618Z"/><path class="cls-51" d="M325.80029,229.9082c8.166-34.0679,14.9824-67.6763,1.6914-72.3516-17.1406-6.0283-29.1465,42.9937-39.625,90.8731-7.9356,36.2715,2.2187,56.8369,16.4746,39.499C316.88429,272.6709,321.26119,248.8418,325.80029,229.9082Z"/><path class="cls-52" d="M330.019,192.0308c-1.51948,10.3662-11.5703,56.5659-18.3593,74.0005-1.8477,4.7412-4.7793,8.8632-3.3887.458,1.793-10.8252,7.5156-33.795,11.1406-52.4947,4.7246-24.3745,8-43.4575,9.4258-43.188C333.31589,169.4985,330.24559,189.9355,330.019,192.0308Z"/><path class="cls-53" d="M324.55609,157.0601c-15.5937.167-26.8203,46.271-36.6894,91.3696-4.6836,21.4072-3.0645,37.3398,1.9785,43.2412,1.6035-15.2764,9.9414-44.5459,17.9551-75.7266C315.75729,184.9868,317.89209,168.1523,324.55609,157.0601Z"/><path class="cls-54" d="M334.37451,167.8691a23.57134,23.57134,0,0,0-.90232-3.5283c-2.0684,18.2534-6.9805,46.7779-17.0352,80.9063-5.8262,19.7734-10.0898,33.8838-13.2051,43.957.3672-.4014.7364-.8223,1.1094-1.2754.3633-.4433.7187-.8935,1.0703-1.3506,3.0293-9.8467,7.0234-23.1015,12.2852-40.9599a499.60692,499.60692,0,0,0,16.67772-77.7491Zm-3.58012-8.1718c-9.2304,34.6572-30.2597,114.167-35.625,134.4619a5.875,5.875,0,0,1-1.3418-.0664c5.2793-19.961,26.6778-100.8745,35.8672-135.3672a8.7275,8.7275,0,0,1,1.0996.9717Zm-7.54488-2.5137c-9.59372,17.3799-17.98442,53.979-24.48832,82.3525-1.4804,6.46-2.8652,12.4961-4.1406,17.7754-4.0078,16.5762-5.0645,27.375-5.1699,33.8682a13.63538,13.63538,0,0,1-1.2403-2.0068c.2774-6.752,1.49612-17.1299,5.1329-32.1719,1.2773-5.2881,2.65822-11.3125,4.1367-17.7608,6.3789-27.8242,14.5644-63.5249,24.0117-81.5478A8.74146,8.74146,0,0,1,323.24951,157.1836Z"/><path class="cls-51" d="M63.98051,180.5889c-12.70711-4.5088-29.92581.4101-20.49811,12.7085,9.4297,12.2983,16.3984,12.7085,20.49811,31.5659,4.09959,18.8574,37.30459,17.6279,42.63469,31.1562,5.3301,13.5274,6.1485,18.0371,22.5469,25.416,16.39841,7.3799,17.2187,29.9268,17.2187,29.9268s8.6075-39.3555,1.2286-60.6719c-7.37889-21.3174-25.4161-32.7964-28.2852-45.5044-1.8555-8.2177-11.3359-19.0962-19.8184-21.7641C88.541,179.9727,71.8476,183.3804,63.98051,180.5889Z"/><path class="cls-54" d="M139.51951,279.8701a149.25419,149.25419,0,0,0-21.74611-38.831A238.22056,238.22056,0,0,0,88.1601,210.104a158.99747,158.99747,0,0,0-18.3457-14.0073c-3.2871-1.9981-16.5644-7.5034-16.6425-7.5611,2.9297-1.0883,14.875,5.0665,17.3183,6.4478a144.51471,144.51471,0,0,1,18.9239,13.6543,236.08278,236.08278,0,0,1,30.4218,30.7871c9.8164,12.7344,16.6934,24.415,22.4102,39.4434.1133.3047.2226.6103.332.916.7363,2.4306,9.0606,41.7832,3.0371,35.9326-.3066.0986-4.8672-31.9922-5.7715-34.9531C139.8418,280.7158,139.56051,279.9785,139.51951,279.8701Z"/><path class="cls-54" d="M99.26951,228.2329c-2.80081-.81-5.61131-1.5669-8.40231-2.4067a49.01,49.01,0,0,1-7.9824-3.0396,18.97021,18.97021,0,0,1-6.2247-4.8193c-.3457-.4058-7.7402-8.4307-6.7812-9.1455.8047-.6114,7.6191,7.6157,8.01761,8.0566a18.23564,18.23564,0,0,0,5.88669,4.042,54.11642,54.11642,0,0,0,7.73631,2.6206c2.82029.7593,5.64459,1.4658,8.45309,2.2744,1.2325.3775,11.3672,3.0059,9.9122,4.8028C109.5488,232.5527,100.5391,228.6123,99.26951,228.2329Z"/><path class="cls-54" d="M104.3437,219.1089c-.3535-7.0405.4805-10.4507-1.2129-17.918a18.70714,18.70714,0,0,0-4.6699-8.0478,21.16676,21.16676,0,0,0-3.6797-3.1187c-.3164-.1982-3.9238-1.9355-3.9472-1.9888.4941-.5781,3.959.8487,4.4609,1.0884a18.87053,18.87053,0,0,1,4.209,2.9531,19.63123,19.63123,0,0,1,5.6211,8.5743c2.0234,7.685,1.3437,10.956,1.7324,18.2929.3887,3.7823,2.99611,9.9151,1.6113,10.1817C106.2051,231.2607,104.4492,220.0566,104.3437,219.1089Z"/><path class="cls-54" d="M121.9258,252.0293a120.80218,120.80218,0,0,1-12.377-5.0352c-1.5508-.8427-13.3535-8.4384-13.5644-10.5253.5605-.3096,12.6757,7.6259,14.5175,8.5449,3.9571,1.6836,8.2344,3.1709,12.2872,4.6504,3.1582,1.1562,5.9335,1.1875,5.455,3.1953C127.7246,255.0771,124.8398,253.0723,121.9258,252.0293Z"/><path class="cls-54" d="M132.22851,255.8457c-1.64261-13.7793-8.16211-25.8975-9.04881-32.1514,5.0351,4.9727,10.59181,24.3526,11.5527,31.8809.0957,1.0644,1.3438,7.5635-.7832,7.2363C132.0683,263.1025,132.4414,257.9844,132.22851,255.8457Z"/><path class="cls-55" d="M137.7012,240.5059c-1.4278-2.4473-2.92969-4.7569-4.4805-7.1231-7.5508-11.0044-15.7813-17.2519-19.6055-30.6118a19.28268,19.28268,0,0,0-3.4902-7.4458,20.91144,20.91144,0,0,0-5.8399-5.1372c-5.1523-2.9443-9.791-4.0562-15.6367-4.6372-1.0937-.0923-15.00189-.9946-15.25-1.103,1.3047-.5708,13.6153-.1661,15.33211-.0865a36.86778,36.86778,0,0,1,16.414,4.3604,22.49113,22.49113,0,0,1,6.46289,5.4355,21.0149,21.0149,0,0,1,4.002,8.1211c3.8359,12.5874,12.3613,19.2012,19.6836,29.7344,1.5996,2.4023,3.1328,4.7373,4.5878,7.2344,1.5352,2.958,12.6602,32.3925,7.834,28.8652C147.498,268.3506,139.6777,244.2842,137.7012,240.5059Z"/><path class="cls-54" d="M144.6973,154.5264c-7.3672-11.294-24.0411-17.8286-24.0059-2.3316.03711,15.4966,5.3262,20.0503-2.8535,37.5288s18.9629,36.6441,14.9941,50.6319c-3.9707,13.9873-6.0547,18.0693,2.5059,33.8838,8.55861,15.8134-4.4668,34.2353-4.4668,34.2353s30.7187-26.0644,37.7832-47.4873c7.0664-21.4228-.3106-41.4907,5.11721-53.3345,3.50969-7.6582,2.57419-22.0566-2.55281-29.3242C164.5937,168.9346,149.2578,161.5176,144.6973,154.5264Z"/><path class="cls-51" d="M144.52151,279.2773a149.239,149.239,0,0,0,6.26759-44.0615,238.00394,238.00394,0,0,0-4.7754-42.5581,158.65289,158.65289,0,0,0-6.0879-22.2646c-1.4004-3.5821-8.6172-16.0142-8.6446-16.107,2.99031.9117,8.7539,13.0523,9.8575,15.6319a144.22886,144.22886,0,0,1,6.7617,22.3349,235.97456,235.97456,0,0,1,5.5078,42.9297c.0781,16.0781-1.5391,29.5371-6.1113,44.9522-.0957.3105-.19139.6201-.2911.9297-.8906,2.3789-18.1445,38.7128-19.3828,30.4082-.3047-.1075,15.5371-28.3858,16.6153-31.2881C144.2637,280.1455,144.4883,279.3877,144.52151,279.2773Z"/><path class="cls-51" d="M143.8476,213.8096c-1.7343-2.3423-3.5117-4.6504-5.2187-7.0113a48.8657,48.8657,0,0,1-4.502-7.2583,18.93781,18.93781,0,0,1-2.0253-7.6069c-.0274-.5322-1.03909-11.3975.1562-11.3848,1.0098.0025,1.4375,10.6768,1.4863,11.2686a18.251,18.251,0,0,0,2.2285,6.7842,54.14222,54.14222,0,0,0,4.5606,6.7768c1.7812,2.315,3.5976,4.5894,5.3398,6.9361.752,1.0478,7.2149,9.2856,4.9688,9.8315C149.4004,223.4795,144.6269,214.8818,143.8476,213.8096Z"/><path class="cls-51" d="M153.418,209.6348c3.9882-5.812,6.7207-8.0171,9.9043-14.9805a18.72369,18.72369,0,0,0,1.1699-9.2314,21.21927,21.21927,0,0,0-1.0332-4.7115c-.1328-.3496-1.9453-3.9184-1.9317-3.9756.74421-.1591,2.6328,3.0767,2.8848,3.5713a18.75131,18.75131,0,0,1,1.5547,4.9009,19.62105,19.62105,0,0,1-.7305,10.2271c-3.0547,7.3364-5.5801,9.5249-9.7226,15.5927-1.9844,3.2432-3.6309,9.7007-4.8946,9.0723C147.5234,220.4243,152.9258,210.4517,153.418,209.6348Z"/><path class="cls-51" d="M147.4238,246.4707a120.75743,120.75743,0,0,1-6.7851-11.5107c-.7207-1.6104-5.4961-14.8091-4.3985-16.5962.6348.0942,5.4512,13.7524,6.3594,15.601,2.123,3.7393,4.6211,7.5157,6.9453,11.1495,1.80861,2.8349,3.9961,4.5439,2.3984,5.8496C150.18551,252.4121,149.1094,249.0684,147.4238,246.4707Z"/><path class="cls-51" d="M153.2988,255.7559c7.0528-11.9512,9.22271-25.5401,12.3106-31.0498.9863,7.0087-6.3536,25.7851-10.1563,32.3535-.5703.9023-3.51759,6.8271-5.0117,5.2773C148.76951,261.4277,152.1699,257.584,153.2988,255.7559Z"/><path class="cls-56" d="M166.9551,246.8799c.3515-2.8106.5566-5.5596.7597-8.3809.6739-13.3281-2.08-23.2876,2.9844-36.2285a19.29293,19.29293,0,0,0,1.7422-8.0361,20.92577,20.92577,0,0,0-1.5273-7.628c-2.31059-5.4658-5.3223-9.163-9.6172-13.1713-.8145-.7369-11.3223-9.8912-11.4532-10.1275,1.3829.3364,10.9219,8.126,12.2403,9.231a36.8677,36.8677,0,0,1,10.4043,13.4238,22.5126,22.5126,0,0,1,1.8398,8.2422,21.02953,21.02953,0,0,1-1.7441,8.8838c-4.5879,12.3335-1.8223,22.7632-2.3907,35.5796-.1855,2.8799-.3847,5.665-.7421,8.5332-.5723,3.2832-9.584,33.4326-11.2813,27.7002C157.8516,274.959,166.2344,251.083,166.9551,246.8799Z"/><path class="cls-51" d="M213.00579,183.7432c10.9024-7.9346,28.8086-8.1104,23.26372,6.3603-5.54692,14.4707-12.11132,16.8438-10.68362,36.0889,1.4278,19.2451-30.75969,27.501-32.02538,41.9863-1.26561,14.4844-.77141,19.041-14.39641,30.7754s-8.004,33.585-8.004,33.585-19.4355-35.2871-18.4179-57.8223,15.0508-38.666,14.1914-51.6655c-.5567-8.4063,5.4414-21.5298,12.8164-26.4981C189.2832,190.1304,206.25579,188.6548,213.00579,183.7432Z"/><path class="cls-54" d="M168.7891,300.3955a149.24988,149.24988,0,0,1,9.81641-43.4092A238.22672,238.22672,0,0,1,198.209,218.9116a159.00049,159.00049,0,0,1,13.6093-18.6426c2.584-2.8491,13.75-11.9013,13.8086-11.9785-3.1171-.2114-12.8242,9.0845-14.77338,11.1031a144.55363,144.55363,0,0,0-14.26371,18.4682,236.03623,236.03623,0,0,0-20.4199,38.1626c-5.793,14.9981-9.0683,28.1524-10.2793,44.1856q-.03225.4863-.0586.9726c-.0156,2.5391,3.1856,42.6348,7.2988,35.3145.3223.0068-4.4238-32.0567-4.3984-35.1524C168.7207,301.2988,168.7832,300.5117,168.7891,300.3955Z"/><path class="cls-54" d="M192.709,239.4502c2.4531-1.5723,4.93551-3.0967,7.373-4.6953a49.116,49.116,0,0,0,6.7891-5.1826,18.96146,18.96146,0,0,0,4.5976-6.3887c.21682-.4873,5.0254-10.2822,3.9043-10.6958-.9453-.3574-5.14248,9.4668-5.3984,10.0024a18.25353,18.25353,0,0,1-4.49608,5.5484,54.2,54.2,0,0,1-6.67192,4.7104c-2.48829,1.5303-4.99608,3.0098-7.459,4.583-1.0742.7119-10.0449,6.1123-8.1406,7.4209C184.0801,246.5127,191.5976,240.1748,192.709,239.4502Z"/><path class="cls-54" d="M185.25,232.1445c-1.6602-6.8515-3.4297-9.8838-3.9277-17.5244a18.728,18.728,0,0,1,2.1914-9.0434,21.206,21.206,0,0,1,2.6406-4.0357c.248-.2798,3.2129-2.9702,3.2207-3.0283-.6387-.4136-3.5547,1.939-3.9668,2.311a18.8041,18.8041,0,0,0-3.1973,4.0274,19.63962,19.63962,0,0,0-2.9551,9.8183c.2461,7.9429,1.8262,10.8858,3.5391,18.0308.7012,3.7373-.0566,10.3584,1.3477,10.2197C186.9199,244.3242,185.4199,233.083,185.25,232.1445Z"/><path class="cls-54" d="M177.748,268.7031a120.86673,120.86673,0,0,0,10.43751-8.3437c1.24419-1.249,10.40428-11.8858,10.01368-13.9463-.62689-.1377-9.98629,10.9131-11.49409,12.3174-3.3145,2.7392-6.9922,5.3808-10.4571,7.9502-2.6992,2.0058-5.35149,2.8252-4.3222,4.6132C173.0527,273.2734,175.248,270.5313,177.748,268.7031Z"/><path class="cls-54" d="M168.9531,275.29c-2.3398-13.6777.4668-27.1494-.459-33.3974-3.416,6.1982-3.2343,26.3584-2.0175,33.8496.21091,1.0469.8593,7.6328,2.8066,6.7148C171.168,282.2031,169.3574,277.4004,168.9531,275.29Z"/><path class="cls-55" d="M159.3476,262.1367c.67191-2.751,1.459-5.3926,2.2715-8.1015,4.1133-12.6963,10.2285-21.0254,10.0996-34.9214a19.32151,19.32151,0,0,1,1.2305-8.1304,20.91454,20.91454,0,0,1,4.1406-6.585c4.1035-4.2871,8.2344-6.6709,13.6739-8.8891,1.0234-.3989,14.10149-5.2158,14.30659-5.3902-1.4102-.1772-13.09959,3.7085-14.72269,4.273a36.88055,36.88055,0,0,0-14.5,8.8442,22.48069,22.48069,0,0,0-4.6503,7.0489,20.99164,20.99164,0,0,0-1.5293,8.9228c-.1016,13.1582-6.39649,21.9219-10.4239,34.1025-.8515,2.7569-1.6582,5.4307-2.3437,8.2383-.63089,3.2735-2.9356,34.6553.6914,29.9024C157.8672,291.6172,158.5273,266.3213,159.3476,262.1367Z"/><path class="cls-51" d="M216.59369,236.0918c-.8964,3.8564-.2324,7.9355,5.6914,10.1191,8.9883,3.3135,24.5,1.3018,27.9649-2.1201a14.39073,14.39073,0,0,0,3.1421-6.1269c1.9023-6.6319-6.4761-9.9414-15.5874-10.7119C228.48629,226.4639,218.38669,228.3745,216.59369,236.0918Z"/><path class="cls-57" d="M244.58789,216.2559a53.86424,53.86424,0,0,0-3.4473,4.1499,28.73332,28.73332,0,0,0-4.4355,9.2573c-.14258.4082-.4551,1.4111-.9883,1.4873-.5332-.0449-.8418-1.0313-.9824-1.4316-1.08988-4.1041-.0762-8.0147,1.7714-11.8077a25.3797,25.3797,0,0,1,3.6973-5.3105c2.6719-2.7793,3.9063-4.6372,5.9883-2.0986C248.52729,212.7788,247.31051,213.2461,244.58789,216.2559Z"/><path class="cls-2" d="M213.82229,292.9355c2.6835.9278,5.1328,1.5381,7.3984-.4375,1.8535,4.8653,4.8476,5.4346,9.5859,3.7227,4.6856-1.6934.1446-3.1816,4.2422-.8096,6.76372,3.916,10.2481-2.5117,12.4258-2.1992,7.605,1.0918,7.9565-.3076,10.9487-7.582,3.1856-7.7432,15.0821-43.3799,9.4375-49.6514-4.2812-4.7588-10.9785-2.3955-15.6992-.166-4.2104-5.1719-7.5776-8.0107-14.1909-4.0859-7.19918,4.2705-2.49018,5.0771-8.1074.7695-5.7969-4.4448-10.38478-.627-14.3731,3.584-12.248-10.0723-18.13468-2.5996-15.9668,11.1513C200.959,256.3477,205.13079,289.2148,213.82229,292.9355Z"/><path class="cls-58" d="M216.20509,236.4521a.60752.60752,0,0,1,1.2129-.0722c.375,6.1787,1.1328,14.8144,1.9687,23.4853,1.5117,15.6758,3.2695,31.3858,3.4746,32.9659a.60747.60747,0,0,1-1.2051.1543c-.207-1.5977-1.9726-17.3643-3.4804-33.0049C217.33979,251.3242,216.582,242.6816,216.20509,236.4521Z"/><path class="cls-58" d="M233.17579,235.2578a.6092.6092,0,1,1,1.2168-.0625c1.123,20.586.7226,59.3213.7226,59.4326a.60844.60844,0,1,1-1.2168-.0136C233.90039,294.5029,234.29689,255.8398,233.17579,235.2578Z"/><path class="cls-58" d="M252.17529,237.6377a.60935.60935,0,0,1,1.2187,0,246.19494,246.19494,0,0,1-1.6367,25.2637c-1.7143,15.8017-4.2026,30.1152-4.4546,30.8027a.60856.60856,0,1,1-1.1445-.4141c.2441-.6689,2.6875-14.8115,4.3887-30.5166A244.14658,244.14658,0,0,0,252.17529,237.6377Z"/><path class="cls-59" d="M208.07809,245.5938c1.1758,10.8056,2.3809,22.3945,3.2168,33.2158.0313.4541.043.915.0645,1.3701.0136.2187.1445,1.2178.0039,1.3877-.4082.2539-.9766-.9072-1.0782-1.1289-.1777-.4004-.33-.877-.5214-1.251-3.6036-8.4541-5.4297-23.8145-6.5235-33.0889-.3789-3.4834-2.2754-9.7285,1.1231-9.79C208.00779,235.5029,207.64451,242.0566,208.07809,245.5938Z"/><path class="cls-59" d="M226.02151,245.541c2.65228,24.3926.80078,42.6113-.49032,42.3272-1.08-.2383-4.2402-15.1387-5.7851-41.2325-.3789-3.4834-.8379-10.3173,2.5605-10.3789C225.95119,235.4502,225.58789,242.0049,226.02151,245.541Z"/><path class="cls-59" d="M243.15619,246.2129c-.2558,24.5273-3.3984,42.167-4.3652,41.6572-.8066-.4258-1.834-15.6826-.5644-41.6914.0371-3.5039.3281-10.3252,2.9472-9.7822C244.05269,236.248,243.15619,242.6484,243.15619,246.2129Z"/><path class="cls-59" d="M260.66939,248.6816c-2.7617,22.2745-7.4394,38.0088-8.2656,37.4522-.6914-.4649-.0527-14.4336,3.7852-37.958.39452-3.1817,1.3632-9.3545,3.6914-8.6094C262.51319,239.708,261.03859,245.4404,260.66939,248.6816Z"/><path class="cls-54" d="M290.42329,240.5371c-1.7617,3.5449-2.0586,7.667,3.19922,11.1592,7.98048,5.3027,23.53518,6.9297,27.69728,4.4014a14.39982,14.39982,0,0,0,4.47272-5.2344c3.38278-6.0137-4.002-11.1699-12.68752-14.0254C304.22019,233.918,293.95259,233.4424,290.42329,240.5371Z"/><path class="cls-54" d="M322.24559,227.708c-1.5195,1.0483-2.9043,2.0498-4.3145,3.2402a28.7737,28.7737,0,0,0-6.455,7.9815c-.2305.3642-.76958,1.2685-1.3028,1.2197-.5097-.168-.582-1.1992-.6269-1.6201-.1114-4.2451,1.7773-7.8164,4.45312-11.0791a25.53305,25.53305,0,0,1,4.82228-4.3125c3.2441-2.0864,4.875-3.6084,6.3125-.6577C326.88229,225.2349,325.58929,225.4082,322.24559,227.708Z"/><path class="cls-17" d="M274.58929,295.2012c2.3965,1.5224,4.6407,2.6816,7.3008,1.2832.6778,5.1631,3.461,6.4082,8.4649,5.8379,4.9511-.5645.875-3.0625,4.3144.1923,5.6758,5.3731,10.5508-.0742,12.5977.7325,7.1465,2.8193,7.8105,1.539,12.4043-4.8467,4.8886-6.7969,24.6992-38.7188,20.6582-46.125-3.0664-5.6201-10.127-4.8682-15.2363-3.79-2.9024-6.0059-5.5215-9.5459-12.8633-7.2559-7.9883,2.4922-3.5938,4.3652-8.06448-1.124-4.61332-5.6641-9.959-3.0108-14.81252.165-9.5879-12.6309-17.043-6.7207-18.1113,7.1592C270.53269,256.6299,266.99359,289.5723,274.58929,295.2012Z"/><path class="cls-9" d="M289.96239,240.7979a.60769.60769,0,1,1,1.1973.2089c-1.0625,6.0987-2.3223,14.6758-3.5118,23.3047-2.1523,15.6006-4.0742,31.291-4.2382,32.877a.60793.60793,0,0,1-1.209-.1289c.1679-1.6016,2.0937-17.3506,4.2422-32.916C287.63039,255.5293,288.89009,246.9453,289.96239,240.7979Z"/><path class="cls-9" d="M306.74951,243.5576a.60957.60957,0,0,1,1.19918.2197c-3.666,20.2891-13.0058,57.8829-13.03318,57.9913a.60894.60894,0,0,1-1.18162-.295C293.76119,301.3652,303.08539,263.8418,306.74951,243.5576Z"/><path class="cls-9" d="M324.685,250.2646a.60914.60914,0,0,1,1.1856.2803,245.98245,245.98245,0,0,1-7.4316,24.2022c-5.3184,14.9775-11.0489,28.3281-11.4512,28.9394a.6094.6094,0,1,1-1.0195-.6679c.3925-.5938,6.039-13.7891,11.32422-28.6748A244.69538,244.69538,0,0,0,324.685,250.2646Z"/><path class="cls-21" d="M279.94289,247.8125c-1.3536,10.7852-2.85938,22.3389-4.5469,33.0605-.0742.4493-.1699.9004-.2539,1.3487-.0371.2158-.14058,1.2178-.3164,1.3496-.4571.1533-.7403-1.1074-.7891-1.3467-.08008-.4307-.1172-.9297-.2187-1.3379-1.5508-9.0576.22262-24.4238,1.3007-33.7002.4375-3.4775.0352-9.9912,3.3575-9.2656C282.20651,237.9795,280.33929,244.2725,279.94289,247.8125Z"/><path class="cls-21" d="M297.41159,251.9092c-3.0547,24.3447-9.0664,41.6426-10.2578,41.0674-.9961-.4805-.627-15.708,3.9004-41.4532.4355-3.4765,1.57032-10.2324,4.8906-9.5058C299.67719,242.0752,297.80809,248.3682,297.41159,251.9092Z"/><path class="cls-21" d="M313.92919,256.5225c-5.9199,23.8046-13.05268,40.2402-13.875,39.5214-.6875-.6025,1.8398-15.6826,9.0859-40.6943.8457-3.3994,2.7051-9.9687,5.1289-8.8359C317.105,247.0352,314.75339,253.0547,313.92919,256.5225Z"/><path class="cls-21" d="M330.39789,262.9717c-7.8379,21.0332-16.02338,35.2607-16.6992,34.5283-.5644-.6123,3.2852-14.0547,12.4551-36.0557,1.1191-3.0039,3.4883-8.7861,5.5801-7.5234C334.26509,254.668,331.50339,259.9033,330.39789,262.9717Z"/><path class="cls-60" d="M168.5098,268.0166c15.8769-4.3223,30.53709-1.2451,32.748,6.874,2.2109,8.1192-8.86719,18.2041-24.74219,22.5274-15.875,4.3222-30.53709,1.2451-32.748-6.8741C141.5566,282.4248,152.6348,272.3389,168.5098,268.0166Z"/><path class="cls-61" d="M197.75,274.2559c1.72459,6.3349-8.35549,14.5957-22.5156,18.4511-14.1621,3.8565-27.0411,1.8457-28.7657-4.4892l-12.998-47.7422,51.2812-13.9629Z"/><path class="cls-62" d="M197.75,274.2559c1.68159,6.1718-7.8477,14.1728-21.4356,18.1455a55.84906,55.84906,0,0,0,5.0157-5.4004c8.3281-10.2364-2.8282-31.7813-10.1543-56.792l13.5761-3.6963Z"/><path class="cls-60" d="M155.1426,218.9229c15.87691-4.3223,30.5234-1.3028,32.71291,6.7446,2.19139,8.0473-8.90241,18.0747-24.77741,22.397-15.8769,4.3222-30.5215,1.3037-32.7129-6.7442C128.1738,233.2734,139.2676,223.2456,155.1426,218.9229Z"/><path class="cls-62" d="M156.3476,223.3462c13.1895-3.5908,25.1133-1.9746,26.6348,3.6094,1.5195,5.5844-7.9394,13.0229-21.12889,16.6137-13.18941,3.5909-25.11331,1.9746-26.63281-3.6093C133.6992,234.375,143.1582,226.9375,156.3476,223.3462Z"/><path class="cls-63" d="M189.2266,243.5908a1.52412,1.52412,0,0,1,2.9375-.7998c1.0253,3.7686-1.4219,7.9903-6.209,11.7695-4.4727,3.5303-11.06059,6.7549-18.7032,8.836-7.6406,2.0801-14.955,2.6406-20.5996,1.8642-6.041-.83-10.2929-3.2285-11.3183-6.9961a1.52413,1.52413,0,0,1,2.93751-.7998c.69919,2.5674,4.041,4.2627,8.88279,4.9278,5.2363.7207,12.0976.1806,19.3379-1.791,7.23831-1.9717,13.4258-4.9834,17.5761-8.2598C187.9023,249.3145,189.9258,246.1582,189.2266,243.5908Z"/><path class="cls-63" d="M190.709,249.0322a1.523,1.523,0,0,1,2.93551-.7988c1.02739,3.7676-1.42191,7.9893-6.209,11.7686-4.47261,3.5302-11.05861,6.7548-18.70111,8.8359-7.6426,2.0801-14.9551,2.6406-20.5996,1.8642-6.043-.83-10.293-3.2285-11.3184-6.996a1.52312,1.52312,0,0,1,2.9355-.7998c.6993,2.5673,4.043,4.2626,8.8829,4.9277,5.2382.7207,12.0976.1806,19.3378-1.791,7.2403-1.9707,13.4278-4.9834,17.5782-8.2598C189.3848,254.7559,191.4082,251.5996,190.709,249.0322Z"/><path class="cls-63" d="M192.1894,254.4746a1.5241,1.5241,0,0,1,2.9375-.7998c1.0254,3.7676-1.4218,7.9893-6.2089,11.7686-4.4727,3.5302-11.0606,6.7548-18.7032,8.8349-7.6406,2.0811-14.9531,2.6416-20.5996,1.8653-6.041-.8301-10.2929-3.2276-11.3183-6.9961a1.52412,1.52412,0,0,1,2.9375-.7998c.6992,2.5673,4.041,4.2627,8.8828,4.9277,5.23831.7207,12.0976.1807,19.3379-1.791,7.2402-1.9707,13.4257-4.9834,17.5761-8.2598C190.8672,260.1973,192.8887,257.041,192.1894,254.4746Z"/><path class="cls-64" d="M169.916,223.3711c-.5293-.0249-1.0547-.04-1.584-.0469a52.35368,52.35368,0,0,0-14.3476,1.9282,41.06939,41.06939,0,0,0-12.2618,5.5054,20.71426,20.71426,0,0,0-4.1503,3.7832c-.3165.4121-2.4747,4.3496-2.50979,4.3672-.67191-.6094,1.18159-4.2871,1.58009-4.9355a18.86869,18.86869,0,0,1,4.08791-4.3848,38.70559,38.70559,0,0,1,12.62689-6.4072,50.13728,50.13728,0,0,1,15.0977-2.3399c.5683.0044,1.1289.0191,1.6953.0459.7793.0723,13.36911,1.5039,11.1269,3.8042C180.8203,226.1328,173.7344,223.7026,169.916,223.3711Z"/><path class="cls-48" d="M134.8848,239.9668a.43328.43328,0,1,1,.7929-.3496c1.2539,2.8369,4.2949,4.4658,8.4297,5.0703,4.6016.6729,10.5293.0771,16.87111-1.54a48.15954,48.15954,0,0,0,15.90819-7.2774c4.0156-2.9267,6.4453-6.0517,6.0371-8.457a.43312.43312,0,0,1,.8535-.148c.4688,2.7613-2.1015,6.189-6.3789,9.3072a49.04471,49.04471,0,0,1-16.2051,7.4131c-6.4511,1.6455-12.496,2.249-17.21279,1.5595C139.5508,244.8965,136.27151,243.1064,134.8848,239.9668Z"/><path class="cls-64" d="M137.81251,258.3564a.43332.43332,0,0,1,.65429-.5683c2.2402,2.5683,6.6406,3.8994,11.9414,4.1758a55.63163,55.63163,0,0,0,18.9707-2.669,47.31969,47.31969,0,0,0,13.3691-6.3633c3.1856-2.3242,5.3379-4.9316,6.0352-7.7031a.43392.43392,0,0,1,.8418.211c-.75,2.9804-3.01949,5.7519-6.3652,8.1933a48.20909,48.20909,0,0,1-13.6211,6.4883,56.52459,56.52459,0,0,1-19.2754,2.71C144.8398,262.543,140.2207,261.1182,137.81251,258.3564Z"/><path class="cls-64" d="M139.4238,264.2715a.43336.43336,0,0,1,.6543-.5684c2.2402,2.5674,6.6387,3.8985,11.94141,4.1748a55.64432,55.64432,0,0,0,18.97069-2.6689,47.37458,47.37458,0,0,0,13.3692-6.3623c3.1836-2.3242,5.3359-4.9326,6.0332-7.7031a.43391.43391,0,1,1,.8418.2109c-.75,2.9805-3.0196,5.7519-6.3653,8.1934a48.199,48.199,0,0,1-13.6191,6.4873,56.52892,56.52892,0,0,1-19.2774,2.7099C146.4492,268.457,141.832,267.0322,139.4238,264.2715Z"/><path class="cls-64" d="M141.0449,270.1992a.4342.4342,0,1,1,.6328-.5947c2.1641,2.3008,6.5039,3.4199,11.7656,3.5537a60.81,60.81,0,0,0,18.9297-2.8779,51.51424,51.51424,0,0,0,13.43951-6.1407c3.21869-2.205,5.416-4.6425,6.16989-7.1953a.43278.43278,0,0,1,.83011.2452c-.81451,2.7558-3.13091,5.3496-6.50981,7.664a52.42186,52.42186,0,0,1-13.6738,6.2539,61.67554,61.67554,0,0,1-19.2051,2.918C147.93751,273.8857,143.3789,272.6816,141.0449,270.1992Z"/><path class="cls-65" d="M329.94289,85.1743c-1.5,3.0601-8.9766,19.2525-11.7422,18.4199-1.1621-1.5424,3.2871-17.0405,4.6191-20.0586,2.5098-5.1606,3.666-4.7475,5.3926-4.2192C329.80419,79.8032,332.17529,79.9824,329.94289,85.1743Z"/><path class="cls-65" d="M342.87839,97.71c-2.1914,2.2212-13.4101,14.0346-15.375,13.0327-.4434-1.3604,8.1094-13.0064,10.1504-15.2158,3.67972-3.7496,4.4785-3.2793,5.7051-2.6465C344.48579,93.4634,346.34129,93.9009,342.87839,97.71Z"/><path class="cls-65" d="M309.16751,86.9839c.12108,2.8306,1.08978,17.6577-1.21682,17.9126-1.4356-.8081-4.3028-14.1265-4.5274-16.8701-.2187-4.7671.7715-4.8233,2.2168-4.9756C306.97019,82.9102,308.73779,82.2827,309.16751,86.9839Z"/><path class="cls-65" d="M145.7851,75.6841c2.004,2.018,12.7618,12.4404,11.2461,13.6318-1.5976.0347-12.71869-8.4575-14.7421-10.3667-3.3887-3.3916-2.7032-3.8638-1.75-4.6045C141.418,73.6621,142.2851,72.4331,145.7851,75.6841Z"/><path class="cls-65" d="M162.8203,64.1899c1.0449,3.2437,6.9297,20.1324,4.252,21.1153-1.9747-.5083-9.6465-15.0835-10.7911-18.1948-1.7793-5.4585-.6132-5.8179,1.0664-6.4253C158.89451,60.1255,160.8086,58.8716,162.8203,64.1899Z"/><path class="cls-65" d="M184.1191,68.1543c-1.1328,2.415-6.7773,15.1631-8.83,14.731-.8555-1.0816,2.5351-13.0914,3.5429-15.4629,1.8926-4.0723,2.752-3.8423,4.0332-3.566C184.0469,64.1113,185.8066,64.0786,184.1191,68.1543Z"/><path class="cls-66" d="M117.5293,270.3008h257.646V430.7236c0,27.4922,4.707,23.0674-23.2305,22.5-70.0019-1.4209-143.31.3565-215.03269.6006-22.6445.0762-19.3828,3.7158-19.3828-17.7002Z"/><path class="cls-67" d="M375.30029,438.7734c.5195,18.502,1.4687,14.9541-23.3555,14.4502-70.0019-1.4209-143.31.3565-215.03269.6006-22.6445.0762-19.3828,3.7158-19.3828-17.7002V282.9688c18.4336-2.1856,39.6289-2.2959,63.9961.1591C177.2148,357.2188,217.916,438.5508,375.30029,438.7734Z"/><path class="cls-68" d="M207.58009,452.6787c11.5488-.0703,167.5757-1.4892,169.4448.125.0664,1.7578-158.8433,2.5234-169.4273,2.5957-12.26949.0694-92.13079,2.0694-86.73039-.8027C115.2324,451.6367,195.7344,452.7568,207.58009,452.6787Z"/><path class="cls-69" d="M190.5522,385.7988H299.32859c6.46392,0,11.752,6.4942,11.752,14.4317h0c0,7.9365-5.28808,14.4306-11.752,14.4306H190.5522c-6.4638,0-11.7524-6.4941-11.7524-14.4306h0C178.7998,392.293,184.0884,385.7988,190.5522,385.7988Z"/><path class="cls-70" d="M397.38429,438.7773c.5117,25.0713,1.86522,30.2813-7.17778,30.2813-9.04292,0-43.332,1.9531-43.332,1.9531s-.75392-10.0937,5.31048-14.001c6.0606-3.9072,28.6387-7.8144,28.6387-7.8144Z"/><path class="cls-71" d="M386.12651,281.1162c27.79878-3.7812,62.02338,2.999,62.02338,2.999-5.2109,9.8116-20.6055,75.5362-23.3887,85.1407-6.5469,22.6045-5.7226,32.6416-13.01368,54.7939-9.50782,28.8857-4.82812,37.71-32.81052,37.4941l-30.8984-.2373c-3.67-.0283-7.0293.7002-7.0645-.8808a12.62,12.62,0,0,1,6.19342-11.3711c5.205-1.5078,28.11718-5.5889,28.11718-5.5889l4.96282-112.622Z"/><path class="cls-70" d="M372.99951,443.8711c1.16208-44.3867,3.332-118.9795,4.49408-163.3672a280.48146,280.48146,0,0,1,30.4961-.2344c.9649.0118-3.8164,42.8526-4.5058,49.1035-2.9512,26.8262-14.4199,90.0557-16.5977,102.5811C384.96829,442.9775,372.99951,443.9033,372.99951,443.8711Z"/><path class="cls-72" d="M433.42919,313.584c-2.1992,10.9883-16.2305,79.5049-19.707,85.2695-1.9102-.3769,13.1289-79.6133,14.4472-86.3056.7168-3.586,3.4258-25.9004,7.2813-24.0098C440.11279,288.2363,434.144,309.8828,433.42919,313.584Z"/><path class="cls-70" d="M95.6933,438.7773c-.5117,25.0713-1.8652,30.2813,7.1797,30.2813,9.043,0,43.3321,1.9531,43.3321,1.9531s.7519-10.0937-5.31059-14.001c-6.06251-3.9072-28.63871-7.8144-28.63871-7.8144Z"/><path class="cls-71" d="M110.4746,280.5293c-27.7988-3.7822-62.0215,2.999-62.0215,2.999,5.209,9.8106,17.082,76.1231,19.8633,85.7276,6.5488,22.6045,5.7246,32.6416,13.0137,54.7939,9.5078,28.8857,4.83,37.71,32.8125,37.4941l30.8965-.2373c3.6699-.0283,7.0292.7002,7.06441-.8808a12.61606,12.61606,0,0,0-6.19341-11.3711c-5.205-1.5078-28.1171-5.5889-28.1171-5.5889l-4.9629-112.622Z"/><path class="cls-72" d="M58.7344,312.9121c2.1992,10.9893,16.2304,79.5049,19.707,85.2695,1.9102-.3759-13.12889-79.6132-14.4473-86.3046-.7148-3.586-3.4258-25.9004-7.2812-24.0098C52.0508,287.5654,58.01951,309.2119,58.7344,312.9121Z"/><path class="cls-70" d="M120.0781,443.8711c-1.1621-44.3867-5.0098-119.6504-6.1719-164.0381a280.48172,280.48172,0,0,0-30.4961-.2344c-.9648.0108,5.4942,43.5235,6.1836,49.7744,2.9512,26.8262,14.42,90.0557,16.5977,102.5811C108.1094,442.9775,120.0801,443.9033,120.0781,443.8711Z"/><path class="cls-71" d="M110.0781,461.5029c1.2735.0381,2.6231.0528,4.0645.041l30.8965-.2373c3.6699-.0283,7.0292.7002,7.06441-.8808a12.61606,12.61606,0,0,0-6.19341-11.3711c-4.871-1.4111-25.248-5.0752-27.8437-5.5401-4.83589,4.7637-8.37889,9.7354-8.4961,15.879A4.328,4.328,0,0,0,110.0781,461.5029Z"/><path class="cls-71" d="M382.99951,461.5029c-1.27342.0381-2.623.0528-4.06252.041l-30.8984-.2373c-3.67-.0283-7.0293.7002-7.0645-.8808a12.62,12.62,0,0,1,6.19342-11.3711c4.87108-1.4111,25.248-5.0752,27.84368-5.5401,4.836,4.7637,8.3789,9.7354,8.4981,15.879A4.35241,4.35241,0,0,1,382.99951,461.5029Z"/><path class="cls-71" d="M413.40379,371.1914l-10.2012,26.5068s-23.2988,14.9698-33.2832,21.6416c-11.4336,7.6387-11.2988-5.7646-9.50388-10.9736,2.01948-5.8535,9.75778-12.4463,20.10548-20.9648,0,0-4.0742-16.7891,6.2637-30.9287C397.12251,342.332,426.19869,340.4209,413.40379,371.1914Z"/><path class="cls-73" d="M387.11279,409.8506a1.50038,1.50038,0,0,1-.8672-2.7246c8.2891-5.8594,14.3574-10.2979,16.9687-14.0694,2.57822-3.7197,7.92-13.6103,7.9747-13.7089a1.5,1.5,0,0,1,2.6406,1.4238c-.2227.4121-5.4766,10.1377-8.1485,13.9931-2.8984,4.1856-8.89058,8.5821-17.7031,14.8106A1.48926,1.48926,0,0,1,387.11279,409.8506Z"/><path class="cls-72" d="M381.59719,376.8535a31.307,31.307,0,0,1,2.0039-11.4765,21.066,21.066,0,0,1,5.9785-8.6446c1.58792-1.2285,8.8926-5.3584,10.459-3.6543-.0078.0303-6.9864,5.2588-7.8789,6.2549a19.95884,19.95884,0,0,0-3.9864,7.5879,35.12493,35.12493,0,0,0-1.21478,9.9023c.11328,4.5323,1.71478,8.4375-1.58792,8.7891C381.34129,386.8086,381.74169,380.2646,381.59719,376.8535Z"/><path class="cls-71" d="M79.6738,371.1914,89.875,397.6982s23.2988,14.9698,33.2832,21.6416c11.4336,7.6387,11.2988-5.7646,9.5039-10.9736-2.01759-5.8535-9.7578-12.4463-20.1035-20.9648,0,0,4.0722-16.7891-6.2656-30.9287C95.957,342.332,66.8789,340.4209,79.6738,371.1914Z"/><path class="cls-73" d="M105.9639,409.8506a1.4918,1.4918,0,0,1-.8653-.2754c-8.8115-6.2285-14.8047-10.625-17.70309-14.8115-2.67091-3.8545-7.92291-13.5801-8.14551-13.9922a1.5,1.5,0,1,1,2.6406-1.4238c.0537.0996,5.3945,9.9902,7.9717,13.708,2.6113,3.7724,8.6797,8.2109,16.9687,14.0703a1.5,1.5,0,0,1-.8671,2.7246Z"/><path class="cls-72" d="M108.7402,376.8535a31.30719,31.30719,0,0,0-2.0019-11.4765,21.05345,21.05345,0,0,0-5.9805-8.6446c-1.5879-1.2285-8.8926-5.3584-10.459-3.6543.0078.0303,6.9863,5.2588,7.8809,6.2549a19.98508,19.98508,0,0,1,3.9863,7.5879,35.12762,35.12762,0,0,1,1.2129,9.9023c-.1133,4.5323-1.7129,8.4375,1.5898,8.7891C108.998,386.8086,108.5976,380.2646,108.7402,376.8535Z"/><path class="cls-74" d="M394.49951,358.7666,94.7754,355.8105c3.957-18.3593,7.4765-33.7988,12.8535-51.9052,3.2695-10.9922,6.51561-21.8272,9.3789-32.9385,50.7324.752,100.98629.7842,151.68509.9805,33.9453.1308,67.4082-1.0323,101.3593-.7578q3.83205.03075,7.6661.0654c4.7773,22.7139,10.2226,47.1347,13.9589,70.0332Q393.08929,350.0274,394.49951,358.7666Z"/><path class="cls-75" d="M394.49951,358.7666,94.7754,355.8105c3.957-18.3593,7.4765-33.7988,12.8535-51.9052,3.2695-10.9922,6.51561-21.8272,9.3789-32.9385q11.73045.1743,23.42971.2998c3.60739,48.6123,60.71088,74.5791,172.45258,73.0049,36.2207-.5098,61.5977-.1319,79.3789.6826Z"/><path class="cls-69" d="M257.18109,355.6094c6.0489.0224,133.795-.4258,133.7813,1.7646.03912,1.9405-127.7012.7139-133.7656.6944-19.2906-.0704-120.066,1.6533-145.94289.0048-22.7227-1.4482-6.8496-3.1455,4.1875-3.5419C146.625,353.4111,239.08589,355.5537,257.18109,355.6094Z"/><path class="cls-46" d="M256.17919,269.3672c5.5898.0176,123.6426-.5264,123.6289,1.665.0352,1.9395-118.0117.8086-123.6152.794-21.8003-.0684-156.23979,2.6377-138.93509-1.5469C99.709,265.9033,234.68939,269.3135,256.17919,269.3672Z"/></g><g id="TEXTS"><path class="cls-76" d="M220.32422,311.43359H201.89551v-3.94824l10.24218-14.5459h-10v-5.16113h17.92774V291.71l-10.24219,14.5625h10.501Z"/><path class="cls-76" d="M237.75,311.43359H223.70605V287.77832H237.75v5.12891h-7.65332v3.72168h7.08691v5.1289h-7.08691v4.46582H237.75Z"/><path class="cls-76" d="M248.2832,302.82617v8.60742h-6.39062V287.77832h7.75q9.6438,0,9.644,6.98926A6.98475,6.98475,0,0,1,255.273,301.127l6.89258,10.30664h-7.248l-5.01611-8.60742Zm0-4.80566h1.19727q3.35082,0,3.34912-2.96094,0-2.44337-3.28369-2.44336h-1.2627Z"/><path class="cls-76" d="M283.96826,299.57324q0,5.97071-2.92969,9.07715-2.92968,3.10693-8.57617,3.10645-5.56641,0-8.53516-3.12207-2.96776-3.12306-2.96875-9.09375,0-5.9048,2.95313-9.02051,2.95313-3.11426,8.584-3.11426,5.64552,0,8.5586,3.08984Q283.9663,293.58692,283.96826,299.57324Zm-16.27734,0q0,6.86133,4.77148,6.86035a4.10527,4.10527,0,0,0,3.60156-1.666,12.10495,12.10495,0,0,0-.01758-10.42871,4.057,4.057,0,0,0-3.55078-1.69043Q267.69092,292.64844,267.69092,299.57324Z"/><path class="cls-76" d="M194.5039,340.61035h-6.42382V330.9668H180.6543v9.64355h-6.42383V316.95508h6.42383v8.76953h7.42578v-8.76953h6.42382Z"/><path class="cls-76" d="M219.72949,316.95508v14.23828a9.55351,9.55351,0,0,1-2.62988,7.19238q-2.6294,2.54883-7.58008,2.54785-4.83839,0-7.43457-2.47558-2.59717-2.47559-2.59766-7.11914V316.95508h6.42383v13.88281a5.6871,5.6871,0,0,0,.93848,3.64063,4.04685,4.04685,0,0,0,5.60644.00781,6.02359,6.02359,0,0,0,.88184-3.68164V316.95508Z"/><path class="cls-76" d="M247.21875,340.61035h-8.38086l-8.64063-16.666h-.1455q.30761,3.93311.30761,6.00293v10.66308h-5.66308V316.95508h8.34863l8.6084,16.43847H241.75q-.22705-3.57567-.22656-5.74316V316.95508h5.69531Z"/><path class="cls-76" d="M261.82959,326.75977h10.209v12.75a28.05676,28.05676,0,0,1-9.14062,1.42382q-5.46973,0-8.45508-3.17089-2.98536-3.17139-2.98438-9.04493,0-5.72754,3.26758-8.915,3.26953-3.1875,9.15821-3.1875a20.27732,20.27732,0,0,1,4.21484.4209,17.85033,17.85033,0,0,1,3.45508,1.06739l-2.02344,5.01562a12.505,12.505,0,0,0-5.61328-1.26172,5.33685,5.33685,0,0,0-4.32813,1.82031,7.87463,7.87463,0,0,0-1.52929,5.20215,7.97731,7.97731,0,0,0,1.38281,5.05567,4.79465,4.79465,0,0,0,3.98828,1.74023,11.697,11.697,0,0,0,2.62109-.27539v-3.70508h-4.22265Z"/><path class="cls-76" d="M290.90576,340.61035H276.86084V316.95508h14.04492v5.1289h-7.6543v3.72168h7.08789v5.12891h-7.08789v4.46582h7.6543Z"/><path class="cls-76" d="M301.439,332.00293v8.60742h-6.39062V316.95508h7.75q9.64159,0,9.64258,6.98926a6.98619,6.98619,0,0,1-4.01172,6.35937l6.89258,10.30664h-7.25l-5.01563-8.60742Zm0-4.80566h1.19727q3.34863,0,3.34961-2.96094,0-2.44337-3.28516-2.44336H301.439Z"/><path class="cls-77" d="M206.67334,399.83691a6.331,6.331,0,0,1-1.80567,4.86036,7.36826,7.36826,0,0,1-5.21679,1.6875h-3.63867V393.53516h4.03417a6.79342,6.79342,0,0,1,4.88672,1.66113A6.11024,6.11024,0,0,1,206.67334,399.83691Zm-2.83008.07032q0-4.13966-3.65625-4.13965h-1.4502v8.36719h1.16895Q203.84326,404.13477,203.84326,399.90723Z"/><path class="cls-77" d="M220.99951,399.94238a6.97257,6.97257,0,0,1-1.582,4.9043,6.85728,6.85728,0,0,1-9.07031,0,6.9999,6.9999,0,0,1-1.582-4.92188,6.899,6.899,0,0,1,1.58692-4.89941,5.93015,5.93015,0,0,1,4.54785-1.69238,5.84722,5.84722,0,0,1,4.53027,1.70508A6.986,6.986,0,0,1,220.99951,399.94238Zm-9.37793,0a5.36765,5.36765,0,0,0,.81738,3.24317,2.86,2.86,0,0,0,2.44336,1.08984q3.26075,0,3.26074-4.333,0-4.3418-3.24316-4.34179a2.8772,2.8772,0,0,0-2.45215,1.09472A5.34133,5.34133,0,0,0,211.62158,399.94238Z"/><path class="cls-77" d="M235.062,406.38477h-3.46289l-5.58984-9.72071h-.07911q.167,2.5752.167,3.67383v6.04688H223.6626V393.53516h3.43652l5.58105,9.624h.06153q-.13184-2.50488-.13184-3.542v-6.082H235.062Z"/><path class="cls-77" d="M246.1626,406.38477l-.93164-3.0586h-4.68458l-.93164,3.0586H236.6792l4.53515-12.90235h3.33106l4.55273,12.90235Zm-1.582-5.34375q-1.292-4.15724-1.4541-4.70215c-.10937-.36328-.18652-.65039-.2334-.86133q-.29,1.125-1.66113,5.56348Z"/><path class="cls-77" d="M255.67236,406.38477h-2.72461v-10.582h-3.48926v-2.26757h9.70313v2.26757h-3.48926Z"/><path class="cls-77" d="M261.13916,406.38477V393.53516h2.72461v12.84961Z"/><path class="cls-77" d="M278.76123,399.94238a6.97262,6.97262,0,0,1-1.582,4.9043,6.8573,6.8573,0,0,1-9.07032,0,7,7,0,0,1-1.582-4.92188,6.899,6.899,0,0,1,1.58692-4.89941,5.93015,5.93015,0,0,1,4.54785-1.69238,5.84722,5.84722,0,0,1,4.53027,1.70508A6.986,6.986,0,0,1,278.76123,399.94238Zm-9.37793,0a5.36765,5.36765,0,0,0,.81738,3.24317,2.86,2.86,0,0,0,2.44336,1.08984q3.26075,0,3.26074-4.333,0-4.3418-3.24316-4.34179a2.87718,2.87718,0,0,0-2.45215,1.09472A5.34133,5.34133,0,0,0,269.3833,399.94238Z"/><path class="cls-77" d="M292.82373,406.38477h-3.46289l-5.58985-9.72071h-.0791q.167,2.5752.167,3.67383v6.04688h-2.43457V393.53516h3.43653l5.58105,9.624h.06153q-.13184-2.50488-.13184-3.542v-6.082h2.45215Z"/></g></svg>